<?xml version="1.0" encoding="utf-8" ?>
<svg xmlns="http://www.w3.org/2000/svg" xmlns:xlink="http://www.w3.org/1999/xlink" width="1024" height="1024">
	<path d="M0 0L1024 0L1024 174.055L1024 176.681L1024 238.64L1024 259.881L1024 296.254L1024 300.631L1024 323.487L1024 327.043L1024 373.731L1024 648.867L1024 692.732L1024 696.715L1024 721.915L1024 732.351L1024 762.418L1024 782.146L1024 843.974L1024 847.802L1024 862.229L1024 870.387L1024 1024L0 1024L0 0Z"/>
	<path fill="white" d="M369.025 454.515C371.369 454.89 373.682 454.479 375.961 455.16C377.435 456.363 377.839 458.201 378.428 459.937C375.696 459.961 372.026 460.676 369.692 459.099C368.672 457.724 368.971 456.138 369.025 454.515Z"/>
	<path fill="white" d="M401.375 477.726C403.769 480.129 406.475 481.972 409.249 483.901L406.056 486.952L401.207 490.556C401.409 486.272 401.41 482.012 401.375 477.726Z"/>
	<path fill="white" d="M162.574 565.86C166.326 566.38 173.68 568.768 175.915 571.878C176.934 573.296 176.316 575.175 176.028 576.77C172.168 576.154 165.588 568.632 162.574 565.86Z"/>
	<path fill="white" d="M293.938 437.337C298.149 439.009 302.291 441.281 306.398 443.235L305.826 448.557C302.588 447.099 298.636 444.244 296.036 441.815C294.377 440.265 294.001 439.619 293.938 437.337Z"/>
	<path fill="white" d="M253.205 544.576L254.744 545.039C255.438 545.715 255.798 546.226 256.231 547.111C257.388 549.476 259.675 555.149 258.825 557.508L254.153 556.697C253.224 554.632 252.385 552.521 251.511 550.432C252.026 548.47 252.638 546.524 253.205 544.576Z"/>
	<path fill="white" d="M378.85 461.294C379.252 461.584 379.41 461.653 379.71 462.131C380.388 463.215 380.836 464.996 380.464 466.22C377.538 467.554 373.505 467.019 370.374 466.904C369.904 466.847 369.471 466.637 369.028 466.472C368.403 464.992 368.872 462.991 369.045 461.409C372.326 461.49 375.571 461.425 378.85 461.294Z"/>
	<path fill="white" d="M324.308 535.693C327.032 536.785 331.036 545.601 332.679 548.544C332.375 549.615 331.222 550.074 330.323 550.702C329.413 550.816 329.911 550.864 328.864 550.34C327.003 547.49 322.134 541.157 322.454 537.659C322.524 536.891 323.733 536.181 324.308 535.693Z"/>
	<path fill="white" d="M257.149 544.986L261.995 545.49L266.879 558.624C264.956 558.465 263.037 558.135 261.126 557.865L257.149 544.986Z"/>
	<path fill="white" d="M353.95 512.943C357.903 516.034 362.484 519.238 365.701 523.086C365.563 524.53 364.321 525.494 363.375 526.504L362.896 526.8C362.587 526.691 362.26 526.624 361.97 526.472C360.322 525.608 353.375 517.255 352.908 515.35C352.711 514.546 353.541 513.629 353.95 512.943Z"/>
	<path fill="white" d="M272.116 545.746C273.599 545.644 275.021 545.331 276.412 545.915C277.637 549.483 281.111 556.604 281.182 560.036C281.027 560.008 280.872 559.982 280.717 559.951C280.466 559.901 280.217 559.844 279.966 559.794C279.244 559.652 278.343 559.561 277.686 559.217C275.91 558.287 274.243 555.273 273.446 553.44C272.67 551.656 271.324 547.569 272.116 545.746Z"/>
	<path fill="white" d="M243.816 398.232C247.109 400.729 249.465 404.425 252.839 407.019C251.722 408.003 250.439 408.877 249.251 409.779C247.604 410.732 245.736 411.354 243.97 412.062C243.187 407.534 242.167 402.658 243.816 398.232Z"/>
	<path fill="white" d="M278.603 545.747C280.143 545.629 281.803 545.275 283.231 545.98C285.226 550.188 287.043 555.712 287.805 560.288C286.539 560.325 285.04 560.478 283.979 559.649C280.539 556.958 279.452 549.853 278.603 545.747Z"/>
	<path fill="white" d="M14.5099 468.645C15.9346 468.71 17.0789 468.822 18.4637 469.219C20.1388 472.929 19.9309 481.523 19.1985 485.573C17.9559 485.6 17.1994 485.726 16.1227 485.012C13.8056 481.096 14.6303 473.282 14.5099 468.645Z"/>
	<path fill="white" d="M285.092 545.197L290.662 544.771C291.854 549.757 292.588 554.898 293.478 559.948C292.57 560.065 291.67 560.13 290.755 560.184C287.466 558.108 286.068 549.001 285.092 545.197Z"/>
	<path fill="white" d="M264.122 545.534C265.257 545.523 266.606 545.427 267.703 545.731C271.292 546.723 273.479 556.208 274.932 559.49L268.956 558.88C267.103 554.49 265.502 550.094 264.122 545.534Z"/>
	<path fill="white" d="M330.373 532.465C332.537 534.613 336.817 542.762 339.052 545.838C337.726 546.726 336.301 547.516 334.933 548.341C334.776 548.229 334.597 548.142 334.461 548.005C332.538 546.049 326.982 537.09 327.202 534.558L330.373 532.465Z"/>
	<path fill="white" d="M314.41 539.591C316.136 541.463 319.705 551.167 321.036 554.095C320.202 555.317 318.861 555.591 317.525 556.178C314.862 551.401 312.14 546.459 310.125 541.374L310.376 540.856L314.41 539.591Z"/>
	<path fill="white" d="M351.368 516.383C354.86 519.85 357.949 524.794 361.049 528.668L357.546 532.186C354.133 530.278 350.471 522.888 348.287 519.494L351.368 516.383Z"/>
	<path fill="white" d="M319.546 537.78C322.126 539.27 325.953 548.842 327.4 551.81L324.189 553.485C323.457 553.536 323.591 553.673 323.068 553.201C320.088 550.511 317.102 543.761 316.835 539.87C317.496 538.488 318.194 538.433 319.546 537.78Z"/>
	<path fill="white" d="M1024 847.802L1024 862.229C1021.75 861.419 1018.42 860.541 1016.99 858.5C1016.24 857.429 1015.81 856.275 1016.15 854.959C1016.99 851.664 1021.24 849.388 1024 847.802Z"/>
	<path fill="white" d="M294.798 543.689C295.804 544.083 296.106 544.198 296.661 545.218C298.128 547.921 301.083 556.245 300.408 559.305L298.91 559.938C297.712 559.956 296.677 559.921 295.489 559.715C294.403 555.91 291.52 548.38 292.775 544.598L294.798 543.689Z"/>
	<path fill="white" d="M346.585 520.362L346.985 520.539C348.625 522.843 355.292 531.913 355.225 534.087L352.19 536.642C350.467 535.659 344.374 526.466 342.552 524.079L346.585 520.362Z"/>
	<path fill="white" d="M335.635 528.894C338.563 530.5 342.557 538.817 343.83 542.064C343.195 543.402 341.783 544.021 340.573 544.854C337.084 541.725 334.198 535.807 331.629 531.829L335.635 528.894Z"/>
	<path fill="white" d="M307.53 541.544C307.959 541.674 308.334 542.034 308.588 542.392C309.622 543.848 315.412 555.41 315.295 556.564L311.393 557.81C311.15 557.618 310.873 557.462 310.664 557.234C309.206 555.638 303.737 544.382 303.701 542.714L307.53 541.544Z"/>
	<path fill="white" d="M13.9343 433.872C15.1139 434.419 15.4574 434.356 15.8601 435.662C16.6483 438.219 18.8844 457.194 17.8849 459.124C16.6768 459.576 15.943 459.863 14.6263 459.767C13.335 456.153 13.2503 437.988 13.9343 433.872Z"/>
	<path fill="white" d="M244.472 420.984C245.232 420.905 246.026 420.807 246.79 420.833C248.825 420.902 251.165 423.172 252.541 424.58C253.697 425.764 255.026 427.284 255.023 429.012L253.697 430.004C251.222 431.236 248.629 432.108 246.028 433.031C245.164 429.057 244.534 425.053 244.472 420.984Z"/>
	<path fill="white" d="M301.431 543.109C301.558 543.232 301.697 543.345 301.814 543.478C303.104 544.941 309.118 556.352 309.026 558.282L305.251 558.908L303.382 558.946C300.919 556.153 298.117 547.462 298.199 543.764L301.431 543.109Z"/>
	<path fill="white" d="M341.239 524.9Q346.32 531.162 350.446 538.09L345.876 541.188C345.109 541.055 338.404 529.796 337.088 527.999L341.239 524.9Z"/>
	<path fill="white" d="M16.834 408.771C20.1478 411.182 26.0932 423.57 28.1834 427.723C24.9657 427.612 21.857 427.292 18.6691 426.845C18.2434 420.809 17.5395 414.78 16.834 408.771Z"/>
	<path fill="white" d="M368.617 467.834C373.33 468.522 376.909 468.762 381.585 467.644C382.326 470.582 382.666 473.508 383.008 476.513L368.003 473.51C368.306 471.632 368.438 469.727 368.617 467.834Z"/>
	<path fill="white" d="M66.379 639.501C67.3642 639.454 68.799 639.338 69.7473 639.626C71.2479 640.082 72.6923 641.419 73.4884 642.764C74.2446 644.042 74.4443 645.503 73.94 646.912C73.2623 648.807 71.8325 649.396 70.1186 650.069C69.1553 650.084 68.149 650.115 67.2002 649.926C65.7042 649.629 63.9861 648.597 63.1979 647.261C62.5162 646.106 62.243 645.003 62.6088 643.679C63.1714 641.643 64.688 640.571 66.379 639.501Z"/>
	<path fill="white" d="M357.736 506.716C362.674 509.546 366.862 513.577 371.066 517.369L367.454 521.95C364.935 521.089 357.958 513.733 354.985 511.603L357.736 506.716Z"/>
	<path fill="white" d="M361.124 499.469C361.859 497.786 362.517 495.977 363.422 494.382C368.588 497.43 373.721 500.599 378.44 504.316C377.553 506.166 376.751 508.179 375.719 509.944C372.582 505.498 365.843 502.023 361.124 499.469Z"/>
	<path fill="white" d="M360.584 500.788C365.887 503.351 370.281 507.736 375.719 509.944C374.439 512.354 373.044 514.574 371.51 516.825C368.262 512.327 364.102 509.093 359.513 506.065L358.882 505.568C358.646 504.112 359.942 502.118 360.584 500.788Z"/>
	<path fill="white" d="M365.311 487.515C371.246 489.75 375.952 493.518 380.846 497.424L378.875 503.295C373.667 499.94 369.328 496.038 363.713 493.105L365.311 487.515Z"/>
	<path fill="white" d="M313.943 446.22Q321.272 447.917 328.561 449.782L326.657 458.311L326.448 458.596C323.547 458.792 315.976 454.326 313.573 452.358C312.957 450.661 313.694 448.005 313.943 446.22Z"/>
	<path fill="white" d="M89.7407 679.486C92.469 679.405 94.7899 679.459 97.0424 681.184C98.3132 682.157 99.2408 683.515 99.3013 685.164C99.3987 687.814 97.6488 689.575 95.8764 691.275C94.6039 691.528 93.3305 691.78 92.0254 691.675C90.367 691.542 88.7523 690.649 87.6809 689.388C86.64 688.163 86.1681 686.657 86.3405 685.054C86.6066 682.58 87.9197 681.046 89.7407 679.486Z"/>
	<path fill="white" d="M110.2 515.201C114.879 517.096 125.586 525.096 130.366 528.23L128.038 534.33C127.938 534.673 127.646 534.927 127.437 535.216C126.748 535.016 126.309 534.79 125.773 534.306C122.413 531.267 112.519 522.258 110.729 518.737C110.222 517.74 110.245 516.303 110.2 515.201Z"/>
	<path fill="white" d="M19.2966 496.658L21.1625 497.224C23.0085 499.738 25.8272 516.42 25.7378 520.004L24.8706 520.571C23.3667 520.234 20.719 519.758 19.7571 518.432C18.1773 516.254 17.1972 501.816 17.5635 499.021C17.7521 497.581 18.1989 497.503 19.2966 496.658Z"/>
	<path fill="white" d="M258.756 413.981C261.997 415.142 265.736 419.004 268.423 421.244L258.776 427.315C256.573 426.939 251.756 421.091 249.624 419.309C252.582 417.415 255.709 415.732 258.756 413.981Z"/>
	<path fill="white" d="M187.88 581.275C193.74 585.274 199.786 589.299 205.26 593.809L203.583 601.267C201.356 601.052 188.977 589.112 186.343 586.766Q187.128 584.025 187.88 581.275Z"/>
	<path fill="white" d="M259.767 462.56L261.185 462.591C263.861 464.85 265.141 472.163 266.139 475.574C263.967 475.477 261.791 475.289 259.621 475.143C257.252 475.027 254.88 474.748 252.519 474.53C251.904 471.338 251.412 468.111 250.865 464.906L259.767 462.56Z"/>
	<path fill="white" d="M335.439 451.275C339.577 451.591 343.725 452.198 347.852 452.653C348.381 456.819 348.586 461.043 348.89 465.231C344.645 464.547 340.474 463.815 336.298 462.774C335.879 458.934 335.58 455.135 335.439 451.275Z"/>
	<path fill="white" d="M21.8311 468.91C25.0897 468.884 28.2848 469.186 31.5249 469.493C32.3201 473.072 34.8555 480.41 33.9255 483.87L33.3468 483.994C30.722 484.533 27.197 485.672 24.8853 483.8C22.1837 481.612 22.3119 472.358 21.8311 468.91Z"/>
	<path fill="white" d="M256.776 513.968C260.608 514.714 264.356 515.603 268.126 516.619C268.014 520.808 267.612 524.901 267.117 529.06C263.388 529.048 259.652 528.681 255.935 528.402Q256.431 521.189 256.776 513.968Z"/>
	<path fill="white" d="M135.055 532.105C141.065 534.263 146.836 537.919 152.297 541.206Q151.249 547.515 149.893 553.765C146.773 553.332 136.123 542.731 133.365 540.117C134.006 537.471 134.504 534.773 135.055 532.105Z"/>
	<path fill="white" d="M66.629 476.449C71.122 479.594 80.7894 489.55 83.844 494.267L77.2958 498.218L73.5772 500.795C70.1941 493.579 66.2894 486.573 62.474 479.577C63.7396 478.389 65.2086 477.44 66.629 476.449Z"/>
	<path fill="white" d="M275.194 426.905C279.589 428.985 283.898 432.17 288.086 434.706C284.514 438.104 280.359 440.896 276.276 443.632L274.237 444.42C271.116 443.908 266.918 437.82 264.651 435.407C268.255 432.703 271.702 429.753 275.194 426.905Z"/>
	<path fill="white" d="M1013.19 303.911C1016.83 302.917 1020.42 301.856 1024 300.631L1024 323.487C1018.71 321.624 1014.71 319.307 1010.98 315.01C1011.05 311.155 1012.01 307.555 1013.19 303.911Z"/>
	<path fill="white" d="M367.822 475.039C372.889 476.014 377.916 476.865 383.071 477.197C383.157 483.739 382.874 490.085 381.221 496.435C377.689 493.391 374.35 490.726 370.259 488.45L365.617 486.169L366.852 481.106C369.659 481.842 376.876 485.25 378.929 484.98L379.642 485.605L379.638 485.568C377.219 482.207 370.749 480.834 366.953 480.021L367.822 475.039Z"/>
	<path fill="white" d="M254.962 485.882C259.23 485.896 263.418 485.929 267.665 486.441C268.307 492.995 268.441 499.683 268.479 506.267C264.466 505.18 260.51 503.78 256.553 502.502C256.249 496.976 255.509 491.395 254.962 485.882Z"/>
	<path fill="white" d="M1009.25 701.619C1013.97 699.456 1019.01 698.106 1024 696.715L1024 721.915C1016.14 716.335 1012.15 710.777 1009.25 701.619Z"/>
	<path fill="white" d="M262.583 437.05C265.749 439.021 268.738 443.301 271.184 446.116C266.346 448.87 261.072 450.785 255.876 452.741L249.928 454.802C248.801 451.127 247.884 447.579 247.182 443.795C252.917 442.405 257.605 440.165 262.583 437.05Z"/>
	<path fill="white" d="M21.2377 532.224C23.8707 533.063 26.5784 533.662 29.2623 534.316C30.3223 538.342 36.5569 558.604 35.4724 561.172C33.0831 561.661 30.7648 562.109 28.3245 562.281C25.1731 560.135 22.1776 536.994 21.2377 532.224Z"/>
	<path fill="white" d="M289.21 513.507L290.156 513.83C292.037 517.465 293.427 521.372 294.92 525.18C289.283 527.003 283.874 528.133 277.975 528.66C276.146 528.854 274.281 528.912 272.445 529.035C273.12 525.108 273.336 521.194 273.401 517.216C278.82 516.928 284.056 515.085 289.21 513.507Z"/>
	<path fill="white" d="M290.87 444.314C295.122 446.856 299.167 449.795 303.253 452.594C299.748 457.022 296.282 461.475 292.531 465.699C287.913 462.8 283.095 457.409 280.025 452.94C284.048 450.365 287.806 448.034 290.87 444.314Z"/>
	<path fill="white" d="M45.8604 458.399C48.9712 461.158 52.2717 470.187 53.9964 474.143C50.336 477.03 46.315 479.229 42.1294 481.247L38.1214 482.854C36.9887 477.317 36.2758 471.685 35.4539 466.096C39.1257 463.738 42.5054 461.189 45.8604 458.399Z"/>
	<path fill="white" d="M941.946 818.411C945.057 818.923 948.33 820.189 951.384 821.086C970.02 826.562 982.068 835.329 996.268 848.082C983.961 845.889 953.006 826.148 941.946 818.411Z"/>
	<path fill="white" d="M278.828 482.96C281.419 485.476 286.167 499.263 287.767 503.165C285.182 504.249 282.563 505.042 279.879 505.837C277.193 506.467 274.418 506.774 271.69 507.173C270.723 500.395 271.067 493.366 271.082 486.536L278.828 482.96Z"/>
	<path fill="white" d="M788.335 277.471L789.013 277.647C790.46 282.893 784.963 295.291 782.296 299.968C780.753 302.674 778.441 306.697 775.358 307.539C773.449 300.638 773.557 292.747 773.106 285.629C777.628 282.111 783.174 279.89 788.335 277.471Z"/>
	<path fill="white" d="M277.418 454.977C281.018 459.317 285.11 463.242 288.797 467.515C284.408 470.526 279.074 472.224 274.108 474.046C272.505 474.628 270.761 475.005 269.114 475.467C267.659 470.908 266.587 465.595 264.148 461.481C268.745 459.694 273.063 457.277 277.418 454.977Z"/>
	<path fill="white" d="M159.799 545.046C165.852 546.87 171.581 550.016 177.663 551.968C177.814 555.881 178.774 563.619 176.998 567.076L176.265 567.132C169.694 564.759 163.34 561.91 156.638 559.886Q158.631 552.554 159.799 545.046Z"/>
	<path fill="white" d="M612.303 770.258C612.991 770.724 612.684 770.461 613.322 771.166C619.073 777.51 625.157 781.872 632.919 785.413C626.049 786.996 619.38 789.157 612.768 791.582C607.397 793.086 602.194 795.161 597.053 797.302C604.81 789.642 608.813 780.433 612.303 770.258Z"/>
	<path fill="white" d="M29.5956 573.714C33.4876 574.738 37.3248 575.573 41.3001 576.203C42.5765 581.931 48.2325 593.595 48.2791 598.052C48.2889 598.985 47.6006 599.37 47.0128 600.023Q44.888 601.168 42.5224 601.648C40.882 601.995 38.5974 602.048 37.2385 600.885C33.9845 598.1 30.4628 578.637 29.5956 573.714Z"/>
	<path fill="white" d="M87.8694 499.898C92.9247 505.776 97.5459 512.054 102.565 517.984C99.5973 521.669 96.6927 525.165 93.371 528.546L92.3323 528.928C87.913 525.902 81.8998 513.789 79.1153 508.748C81.5309 505.498 84.94 502.697 87.8694 499.898Z"/>
	<path fill="white" d="M19.291 434.383C23.9107 435.07 28.553 435.641 33.1822 436.263C36.4874 440.986 40.2788 446.562 42.4471 451.923L42.1679 452.335L38.0636 453.044C32.5044 454.201 27.182 455.761 21.771 457.459C20.7396 449.809 20.0555 442.067 19.291 434.383Z"/>
	<path fill="white" d="M190.561 557.514C195.939 558.654 201.165 560.18 206.372 561.932Q206.557 562.95 206.688 563.976C207.26 568.45 208.012 584.188 205.72 587.179C200.056 583.067 193.656 579.224 188.572 574.435C190.387 568.736 190.457 563.428 190.561 557.514Z"/>
	<path fill="white" d="M393.352 446.9Q396.848 450.67 400.643 454.14Q404.437 457.61 408.504 460.757Q412.57 463.903 416.882 466.705Q421.193 469.507 425.72 471.945L419.409 475.403C416.346 477.235 413.513 479.365 410.644 481.483C410.525 481.406 410.405 481.332 410.287 481.253L409.702 480.856C406.418 478.654 403.618 475.858 400.742 473.16C398.958 464.038 396.721 455.556 393.352 446.9Z"/>
	<path fill="white" d="M310.814 457.632C316.134 460.118 321.325 463.435 326.459 466.315C324.895 472.693 322.496 479.644 318.695 485.057L317.893 485.069C311.991 480.409 306.275 475.504 300.396 470.811C305.068 466.907 307.974 462.983 310.814 457.632Z"/>
	<path fill="white" d="M54.8293 614.64C57.4499 617.823 61.7002 630.466 63.5793 635.233C58.3769 637.925 58.2791 640.128 55.0901 644.553C53.75 645.247 52.5542 644.941 51.1267 644.75C46.6651 636.72 43.4082 625.955 41.2441 617.036C46.0991 616.93 50.1888 616.01 54.8293 614.64Z"/>
	<path fill="white" d="M35.2463 492.472C35.7751 492.473 36.3631 492.345 36.8249 492.653C39.0945 494.162 44.8938 513.649 46.0564 517.003C43.0566 518.169 40.0945 519.442 36.9139 520.017C34.7417 520.379 32.5217 520.421 30.3251 520.538C27.3252 512.746 26.2808 504.168 25.0603 495.946L35.2463 492.472Z"/>
	<path fill="white" d="M532.908 585.569C533.013 585.771 530.783 593.398 531.194 596.9C531.569 600.09 532.939 603.895 535.592 605.9C538.226 607.891 542.126 608.14 545.26 607.489C548.491 606.817 551.252 604.604 552.921 601.787C555.732 597.041 554.06 591.3 552.749 586.399C557.911 588.905 561.821 591.908 565.723 596.091C565.592 596.79 565.635 596.696 565.379 597.429C563.874 601.743 558.949 605.993 555.028 607.919Q554.412 608.22 553.782 608.489Q553.152 608.758 552.51 608.996Q551.867 609.233 551.213 609.438Q550.559 609.643 549.896 609.815Q549.233 609.987 548.562 610.126Q547.891 610.264 547.214 610.369Q546.536 610.473 545.855 610.544Q545.173 610.615 544.489 610.651Q543.805 610.688 543.12 610.69Q542.435 610.692 541.75 610.659Q541.066 610.627 540.384 610.56Q539.702 610.494 539.024 610.393Q538.346 610.293 537.675 610.158Q537.003 610.024 536.338 609.856Q535.674 609.688 535.019 609.487Q534.364 609.286 533.72 609.052C529.179 607.368 525.463 604.29 523.486 599.811C522.38 597.308 521.367 593.937 522.761 591.336C524.536 588.025 529.628 586.772 532.908 585.569Z"/>
	<path fill="white" d="M525.403 413.31C529.342 414.84 535.916 425.986 537.933 429.86C528.851 433.809 524.254 433.803 515.497 439.918C513.107 441.736 510.623 443.451 508.182 445.201Q508.256 444.487 508.345 443.774Q508.477 442.662 508.664 441.558Q508.85 440.454 509.09 439.36Q509.331 438.266 509.624 437.186Q509.918 436.105 510.264 435.04Q510.61 433.975 511.008 432.929Q511.406 431.882 511.855 430.856Q512.304 429.83 512.802 428.827Q513.301 427.825 513.848 426.848Q514.395 425.871 514.989 424.922Q515.584 423.972 516.224 423.054Q516.864 422.135 517.548 421.249Q518.233 420.362 518.96 419.51Q519.687 418.659 520.455 417.844Q521.222 417.029 522.029 416.252Q522.836 415.476 523.68 414.74Q524.524 414.004 525.403 413.31Z"/>
	<path fill="white" d="M80.2025 696.448C83.6136 697.059 87.0667 698.791 90.3575 699.952C93.0871 699.208 95.5182 698.356 98.0776 697.14C100.697 702.533 103.839 707.627 106.914 712.768L101.139 714.984Q94.8881 717.178 88.5036 718.947C84.6817 713.728 77.8182 705.845 76.5744 699.615C77.3166 698.057 78.8017 697.348 80.2025 696.448Z"/>
	<path fill="white" d="M510.86 456.981C511.215 458.856 510.547 461.216 510.322 463.122C509.266 472.082 514.043 478.575 519.229 485.214C511.021 481.112 502.736 478.4 493.953 475.874Q484.583 473.474 475.103 471.556C487.736 468.42 499.393 463.026 510.86 456.981Z"/>
	<path fill="white" d="M295.51 475.504C301.926 479.974 307.279 485.895 313.598 490.579C309.054 493.948 303.687 496.162 298.557 498.477L290.197 502.055C287.996 495.603 285.243 489.323 282.851 482.935C287.411 480.857 291.452 478.45 295.51 475.504Z"/>
	<path fill="white" d="M520.434 213.424C524.336 216.112 527.795 219.774 531.58 222.683C539.458 228.736 548.076 232.901 557.101 236.896L553.93 241.14C553.267 241.96 552.747 242.442 551.84 242.981C544.523 243.558 531.808 239.445 525.155 236.471C522.376 229.055 521.077 221.291 520.434 213.424Z"/>
	<path fill="white" d="M769.63 287.491C770.65 288.867 771.35 305.996 772.751 310.742C767.617 314.585 762.687 318.075 756.434 319.794C753.022 311.943 751.024 303.442 753.929 295.145C759.226 292.759 764.419 290.061 769.63 287.491Z"/>
	<path fill="white" d="M626.874 336.084C627.83 337.966 628.147 340.615 628.737 342.669Q630.278 348.006 632.367 353.154C634.5 358.453 639.335 366.013 640.697 370.695C640.552 370.791 640.416 370.903 640.261 370.982C636.809 372.748 629.502 370.454 625.931 369.639L608.023 366.297C618.101 356.294 622.845 349.911 626.874 336.084Z"/>
	<path fill="white" d="M504.16 189.867C506.031 191.953 507.648 195.119 509.222 197.485C511.819 201.388 515.207 205.632 516.774 210.089C517.865 213.193 517.67 217.122 518.188 220.397C518.914 224.995 520.082 229.476 520.993 234.034L520.28 234.303C514.836 232.133 508.894 229.618 504.538 225.611C501.264 213.552 501.351 202.024 504.16 189.867Z"/>
	<path fill="white" d="M336.263 469.327C340.724 470.099 345.109 471.06 349.387 472.55C350.046 484.574 347.83 493.822 339.813 503.008C335.379 499.108 330.545 495.623 325.855 492.038C331.633 484.624 334.674 478.615 336.263 469.327Z"/>
	<path fill="white" d="M107.087 524.315C111.607 527.248 119.747 536.653 124.831 540.96C122.098 547.576 118.008 553.428 113.861 559.21L113.088 559.632C108.062 554.783 101.527 544.103 97.1691 537.994Q102.279 531.264 107.087 524.315Z"/>
	<path fill="white" d="M321.233 496.932C325.087 499.202 330.267 505.888 334.09 509.16C325.686 514.882 317.465 520.126 307.622 522.966L301.945 524.418C300.415 519.925 298.325 515.589 296.412 511.248C305.789 507.773 313.431 503.182 321.233 496.932Z"/>
	<path fill="white" d="M75.2547 653.931L75.6714 654.002C77.7085 655.637 83.4317 670.784 85.0693 674.551C81.7561 676.689 80.1956 678.923 78.3529 682.292C74.5977 682.437 70.7505 682.701 67.0139 682.228C64.7849 678.829 56.3665 662.817 56.5861 659.576C58.7475 656.697 65.6038 658.056 69.115 657.123C71.2954 656.543 73.3457 655.104 75.2547 653.931Z"/>
	<path fill="white" d="M57.4763 481.903C59.446 483.07 67.7146 499.961 69.9114 503.69C64.2699 507.768 58.4034 511.26 52.2661 514.52L50.7859 514.917C47.6582 513.171 42.3362 495.092 40.7676 490.551C46.7379 488.237 52.0556 485.281 57.4763 481.903Z"/>
	<path fill="white" d="M741.882 283.435C743.305 285.072 741.337 289.555 742.857 291.935C744.321 294.229 747.33 295.093 749.802 295.716C748.922 305.012 750.006 311.951 753.121 320.749C749.903 321.349 746.69 321.819 743.443 322.238C740.334 322.176 737.483 321.908 734.43 321.309C732.336 315.626 730.632 309.824 730.903 303.707C731.295 294.84 735.635 289.148 741.882 283.435Z"/>
	<path fill="white" d="M430.049 85.4027C436.536 88.046 441.856 91.4829 447.294 95.846C443.048 109.979 439.994 124.084 439.473 138.875C439.324 142.111 439.325 145.364 439.271 148.603C431.016 128.025 429.597 107.263 430.049 85.4027Z"/>
	<path fill="white" d="M142.643 769.416C142.924 769.535 143.282 769.547 143.486 769.774C143.776 770.097 144.286 777.969 144.469 779.083C145.545 785.616 147.454 791.287 150.48 797.162C142.406 796.418 134.985 796.834 126.976 797.932C124.077 798.463 121.069 798.553 118.131 798.772C119.451 790.961 123.207 783.535 126.365 776.327C131.853 774.143 137.319 771.982 142.643 769.416Z"/>
	<path fill="white" d="M130.63 545.878C136.313 550.803 141.692 556.087 147.128 561.281C144.128 570.628 140.023 578.562 134.915 586.882C129.104 580.369 122.96 573.752 117.734 566.772C122.993 560.143 127.156 553.6 130.63 545.878Z"/>
	<path fill="white" d="M486.049 365.364C490.035 368.901 492.925 375.047 496.268 379.325C503.199 388.194 511.888 396.813 520.681 403.809C517.61 407.733 515.18 411.886 512.93 416.324L508.925 425.35C498.207 404.629 490.493 388.642 486.049 365.364Z"/>
	<path fill="white" d="M50.5724 527.473L51.0506 527.526C52.6335 528.771 61.5507 548.102 64.0086 552.045C58.3836 556.08 52.9026 558.916 46.1224 560.409C44.0634 560.506 42.1317 560.79 40.2075 559.915C37.3822 556.847 33.7083 539.155 32.371 534.113C38.4619 531.979 44.6071 529.943 50.5724 527.473Z"/>
	<path fill="white" d="M73.3978 512.374C75.6524 513.218 85.5867 531.797 87.3245 535.17C81.5177 540.876 75.1002 545.413 68.1389 549.582C66.9911 549.977 67.5662 549.968 66.4138 549.614C62.1976 543.837 57.456 532.403 55.1279 525.561C61.6814 521.819 67.4991 517.047 73.3978 512.374Z"/>
	<path fill="white" d="M490.315 160.285C493.432 163.046 499.699 180.481 501.807 185.518C499.12 193.735 497.868 204.14 498.777 212.748C499.128 216.068 499.919 219.325 500.162 222.656L499.284 222.756Q492.196 218.552 485.843 213.304C482.221 195.714 485.938 177.379 490.315 160.285Z"/>
	<path fill="white" d="M358.924 869.635L360.007 869.577C362.313 871.943 362.005 878.754 362.678 881.994C363.708 886.951 366.16 891.836 366.555 896.873C366.187 897.482 366.139 897.861 365.415 898.115C359.24 900.287 346.739 894.966 341.261 892.134C335.226 888.711 330.423 884.459 325.772 879.338C336.399 875.449 347.823 871.891 358.924 869.635Z"/>
	<path fill="white" d="M68.1523 563.944C69.7934 564.492 80.0887 584.556 81.7532 587.605C74.8549 591.347 65.7406 595.9 58.0533 597.41C56.6746 597.37 55.5415 597.336 54.289 596.649C49.4269 593.985 46.2276 581.021 44.4426 575.973C53.1773 573.961 60.8401 568.907 68.1523 563.944Z"/>
	<path fill="white" d="M702.909 489.147C708.468 492.549 713.618 496.763 718.745 500.774C716.261 512.385 715.706 534.215 710.492 543.423L709.755 543.356C704.36 539.047 698.371 523.263 695.572 516.351C698.615 507.379 701.173 498.469 702.909 489.147Z"/>
	<path fill="white" d="M640.765 564.954C646.26 565.429 651.715 565.478 657.225 565.505C657.508 569.663 658.225 573.725 658.225 577.915C658.224 588.698 653.786 599.294 650.405 609.397C650.268 609.683 650.189 610.005 649.993 610.253C649.341 611.078 648.841 610.994 647.922 610.956C643.068 610.751 637.767 605.074 634.653 601.756C639.216 589.169 640.468 578.212 640.765 564.954Z"/>
	<path fill="white" d="M798.567 292.167C816.431 299.769 840.267 313.126 855.292 325.516L849.109 323.353C835.623 320.113 824.874 320.104 811.316 323.088C806.224 316.512 799.766 310.747 793.382 305.462Q796.113 298.869 798.567 292.167Z"/>
	<path fill="white" d="M438.664 59.7903L438.95 59.9346C447.02 63.9167 462.211 78.3706 470.372 85.0349C475.043 88.8499 480.453 92.288 484.604 96.6623C488.356 100.616 495.136 124.194 494.981 129.733L494.466 129.72L493.352 127.89C481.917 109.742 467.557 91.9401 449.554 80.0378C444.981 77.0147 439.65 75.3119 435.069 72.3678C434.326 71.8906 433.497 71.4441 433.393 70.5039C433.02 67.1369 436.705 62.3514 438.664 59.7903Z"/>
	<path fill="white" d="M92.42 542.815C93.3282 543.446 106.403 563.146 108.057 565.512C101.744 573.015 94.0601 579.035 86.4221 585.104L85.3947 585.676C82.3 583.264 74.3222 565.982 71.9218 561.194C79.2284 555.438 86.0242 549.589 92.42 542.815Z"/>
	<path fill="white" d="M508.019 601.903C509.686 603.44 510.995 606.855 512.201 608.849C515.643 614.54 522.638 619.837 528.792 622.343C539.953 626.889 556.896 625.145 566.324 617.323C569.048 615.063 572.249 610.387 575.315 609.12C571.958 613.698 568.571 617.907 564.502 621.876C556.293 628.659 546.834 632.925 536.113 633.496C519.098 634.401 502.923 625.342 490.688 614.251C498.828 611.795 502.602 608.176 508.019 601.903Z"/>
	<path fill="white" d="M632.483 605.776C633.808 606.452 635.103 607.787 636.325 608.682C640.371 611.647 644.116 613.41 648.91 614.857Q644.971 628.51 641.558 642.304C636.937 642.549 632.955 642.301 628.447 641.217C621.567 638.641 615.681 635.348 609.791 630.966C618.853 623.81 626.19 615.401 632.483 605.776Z"/>
	<path fill="white" d="M693.653 520.85C695.413 524.608 696.811 528.443 698.788 532.117C701.845 537.8 705.446 543.162 708.455 548.88C705.785 556.668 703.656 564.563 701.605 572.532Q698.87 571.099 696.149 569.638C687.288 563.8 682.707 555.529 678.162 546.255C684.059 538.135 689.274 529.899 693.653 520.85Z"/>
	<path fill="white" d="M321.456 880.968C324.487 882.787 327.378 886.451 330.083 888.848C337.417 895.347 345.923 898.73 355.086 901.754C345.834 904.625 336.972 906.741 327.263 907.38C315.239 907.098 303.346 904.456 293.369 897.47C301.83 890.932 311.656 885.147 321.456 880.968Z"/>
	<path fill="white" d="M756.521 253.497C755.634 259.606 747.45 273.863 744.144 279.576C737.95 282.844 732.78 287.152 729.805 293.645C725.841 302.294 727.098 311.552 730.436 320.121C727.418 319.245 724.509 318.146 721.574 317.03C720.825 316.593 720.426 316.279 719.959 315.504C715.265 307.717 715.586 287.171 717.813 278.458C728.128 267.665 745.672 265.794 756.521 253.497Z"/>
	<path fill="white" d="M184.892 592.328C190.953 596.945 196.151 603.01 201.815 608.155C198.5 621.703 192.985 633.842 185.946 645.813C185.905 645.821 185.865 645.841 185.824 645.835C183.629 645.512 172.068 629.051 169.802 625.868C176.707 614.38 180.022 604.574 184.892 592.328Z"/>
	<path fill="white" d="M763.877 214.957L764.279 215.541C764.34 223.591 763.367 233.694 761.123 241.371C756.346 257.715 733.627 265.046 720.218 272.542C719.813 272.211 719.813 272.34 719.757 271.827C719.393 268.512 723.621 255.255 725.754 252.46C729.002 248.204 734.874 245.293 738.915 241.723C747.895 233.792 756.635 224.505 763.877 214.957Z"/>
	<path fill="white" d="M381.554 921.944C384.045 923.079 386.828 926.045 389.053 927.773C396.257 933.368 404.933 936.053 413.827 937.386C406.045 943.254 397.502 947.951 388.805 952.299L383.394 954.817C372.527 950.373 365.239 941.2 357.813 932.533C365.86 929.429 373.79 925.701 381.554 921.944Z"/>
	<path fill="white" d="M154.976 565.697Q165.159 575.281 175.655 584.521C172.507 596.196 167.536 606.305 161.562 616.724L160.807 616.867C154.621 609.366 147.942 602.309 141.777 594.806C147.12 585.494 151.224 575.734 154.976 565.697Z"/>
	<path fill="white" d="M113.717 572.544C117.773 576.272 126.42 588.424 130.397 593.436C124.351 602.841 116.852 612.305 107.776 618.937C104.164 616.785 94.4322 599.365 91.2913 594.689Q94.4538 592.317 97.4483 589.736Q100.443 587.155 103.256 584.378Q106.069 581.6 108.687 578.638Q111.305 575.676 113.717 572.544Z"/>
	<path fill="white" d="M545.125 494.622C557.199 494.363 569.494 494.41 581.247 497.504C564.801 506.45 547.59 516.333 535.385 530.859C527.908 537.084 516.228 537.732 506.972 539.336C517.653 531.867 529.975 522.321 536.717 511.044C539.78 505.921 541.753 500.214 544.83 495.101L545.125 494.622Z"/>
	<path fill="white" d="M411.993 423.505C413.893 425.642 417.789 434.847 419.822 438.14C426.74 449.343 435.757 458.035 445.33 466.894C441.012 467.152 432.717 469.446 430.086 469.353C428.706 469.303 427.462 468.687 426.218 468.139Q423.672 466.835 421.201 465.395Q418.729 463.956 416.339 462.384Q413.949 460.813 411.648 459.115Q409.346 457.417 407.14 455.597Q404.933 453.776 402.829 451.84Q400.724 449.903 398.727 447.855Q396.73 445.807 394.847 443.654Q392.964 441.501 391.2 439.25C398.655 434.808 405.28 428.977 411.993 423.505Z"/>
	<path fill="white" d="M787.102 315.834C793.247 318.612 804.418 334.025 807.735 339.977C805.32 344.306 802.589 348.308 797.962 350.53C791.525 353.622 784.496 351.895 778.159 349.57C770.211 346.485 762.766 341.777 755.376 337.549C767.992 334.21 778.892 325.742 787.102 315.834Z"/>
	<path fill="white" d="M87.2508 596.585C91.6187 600.736 99.924 615.664 103.581 621.48C95.0435 627.294 85.7476 633.035 75.837 636.104C73.3206 636.08 70.7682 635.641 68.2708 635.335C65.1488 628.072 61.6505 620.994 58.8118 613.607C69.0931 609.051 78.1388 603.078 87.2508 596.585Z"/>
	<path fill="white" d="M133.335 666.39C137.013 669.762 145.08 683.76 148.218 688.837C138.691 698.108 127.332 704.43 115.417 710.053L113.803 710.367C110.371 708.488 103.831 697.186 101.238 693.602C113.718 686.22 122.366 675.536 133.335 666.39Z"/>
	<path fill="white" d="M503.27 106.813C506.477 108.099 509.589 109.459 512.685 110.994C515.426 118.629 518.134 126.363 520.089 134.242C521.637 140.484 522.618 146.863 524.008 153.142C526.968 166.514 530.819 180.158 536.384 192.697C540.395 201.735 545.587 210.016 551.054 218.22C550.318 217.92 549.632 217.62 548.929 217.248C532.062 208.309 521.204 188.306 516.628 170.452C513.437 158.001 512.186 145.115 509.837 132.492C508.202 123.715 505.945 115.324 503.27 106.813Z"/>
	<path fill="white" d="M137.404 600.824C141.673 604.066 152.755 617.202 157.239 622.032C150.532 633.453 142.177 642.103 132.569 651.054L131.553 651.623C128.964 650.348 116.776 631.724 113.802 627.667C123.95 620.668 130.44 610.763 137.404 600.824Z"/>
	<path fill="white" d="M165.29 631.862C171.21 638.262 176.694 645.02 182.356 651.645C175.598 664.237 164.936 674.173 154.297 683.439L153.396 683.889C150.92 682.214 141.424 666.722 138.386 662.94C148.109 652.957 157.119 643.196 165.29 631.862Z"/>
	<path fill="white" d="M675.297 549.379C677.179 551.639 678.628 554.903 680.162 557.442C685.488 566.258 691.216 571.414 700.324 576.17Q697.637 589.196 695.25 602.281C694.595 605.924 694.537 610.377 693.251 613.79L692.385 613.675C676.673 599.559 668.421 579.351 665.884 558.626C668.668 555.347 672.291 552.524 675.297 549.379Z"/>
	<path fill="white" d="M571.008 389.435C572.24 390.647 571.55 396.026 571.563 397.882C571.636 407.688 574.396 416.736 577.376 425.967C565.042 426.036 553.481 426.914 541.349 429.124L539.546 425.68C536.382 420.575 532.638 415.956 528.894 411.275C537.28 403.886 559.95 395.475 571.008 389.435Z"/>
	<path fill="white" d="M525.989 539.715L526.235 540.025Q525.815 540.808 525.435 541.612C520.827 551.387 518.007 566.385 521.645 576.894C515.958 581.582 511.302 586.109 507.341 592.358C505.451 587.15 503.262 582.279 500.43 577.509C495.373 569.312 490.214 561.224 483.588 554.19C497.002 545.724 510.584 542.38 525.989 539.715Z"/>
	<path fill="white" d="M109.157 631.4C113.056 633.459 123.754 650.669 126.907 655.226C120.338 660.866 112.569 669.195 104.505 672.333C102.592 673.078 100.297 673.208 98.2651 673.438L89.0748 673.557C85.7504 666.599 83.1159 659.157 80.2291 651.998C90.5341 646.101 99.7801 638.634 109.157 631.4Z"/>
	<path fill="white" d="M669.155 586.9C670.83 589.313 671.991 592.769 673.359 595.422C678.288 604.98 684.051 611.93 692.648 618.359Q691.641 628.929 691.446 639.545Q691.25 650.16 691.867 660.76L690.949 660.778L691.882 661.022L691.858 661.541L691.269 661.984L689.704 661.303C685.689 658.785 682.299 655.503 679.329 651.831C672.105 642.901 663.465 624.283 664.704 612.63C665.126 608.66 666.447 604.627 667.252 600.704C668.19 596.129 668.689 591.54 669.155 586.9Z"/>
	<path fill="white" d="M751.756 151.697C753.788 151.389 756.009 151.501 758.071 151.442C746.631 164.442 730.644 174.667 716.796 184.924C703.36 182.738 691.593 183.09 678.951 188.515C677.014 189.494 675.12 190.567 673.213 191.605Q674.94 189.083 676.848 186.695C695.624 163.582 723.03 154.531 751.756 151.697Z"/>
	<path fill="white" d="M595.557 571.306C604.585 578.632 613.313 586.002 623.769 591.245C620.657 603.67 614.997 613.163 607.954 623.68C607.603 624.123 607.439 624.574 606.838 624.68C603.734 625.227 596.424 621.039 593.718 619.305C590.431 617.199 586.954 614.085 586.164 610.073C585.719 607.81 586.84 606.524 588.018 604.719C586.952 602.334 585.436 600.346 583.899 598.256C589.075 589.436 593.322 581.348 595.557 571.306Z"/>
	<path fill="white" d="M731.396 427.404C732.052 430.119 731.413 434.225 731.451 437.089C731.517 442.006 732.752 447.573 732.165 452.392C731.374 458.899 727.314 465.873 725.298 472.184C722.798 480.011 721.488 488.222 719.974 496.289C716.81 494.156 713.788 491.849 710.75 489.543C708.514 487.976 706.398 486.343 704.297 484.599C703.816 471.82 705.086 459.858 702.956 447.051C711.799 439.432 722.772 435.41 731.396 427.404Z"/>
	<path fill="white" d="M136.84 800.714C142.823 800.14 149.136 801.293 155.025 802.253C161.688 808.664 168.482 813.638 176.904 817.482Q173.176 827.057 170.455 836.965C167.56 835.1 164.575 833.485 161.532 831.877C151.33 827.522 141.419 824.466 130.224 826.106C123.519 816.775 118.951 814.994 117.634 802.121C123.837 802.884 130.629 801.345 136.84 800.714Z"/>
	<path fill="white" d="M173.831 752.419C174.733 756.462 173.742 761.423 174.081 765.636C175.13 778.665 180.68 790.251 186.804 801.542C183.923 805.511 181.197 809.496 178.577 813.643C174.559 812.194 171.029 809.972 167.507 807.595C165.189 805.878 162.873 804.078 160.767 802.106C150.323 792.328 147.778 780.952 147.363 767.077C156.719 763.107 165.281 757.852 173.831 752.419Z"/>
	<path fill="white" d="M479.862 556.81C480.588 557.019 481.222 557.351 481.787 557.858C489.023 564.363 503.077 585.453 503.078 595.175C503.079 599.128 501.715 603.535 498.698 606.231C496.446 608.244 492.39 610.049 489.314 609.684C486.628 609.366 485.248 607.257 483.739 605.27C476.225 595.053 466.801 587.798 455.895 581.58C462.968 572.319 470.369 563.696 479.862 556.81Z"/>
	<path fill="white" d="M450.579 97.788Q452.98 99.6221 455.229 101.64Q457.479 103.657 459.562 105.845Q461.646 108.034 463.55 110.379Q465.455 112.725 467.169 115.213C463.754 128.567 461.218 145.91 460.318 159.728C459.755 168.368 460.364 178.154 458.512 186.592C453.146 178.404 447.607 169.583 443.757 160.565C442.848 158.435 442.015 156.149 441.797 153.835C440.632 141.44 445.863 109.376 450.579 97.788Z"/>
	<path fill="white" d="M1024 648.867L1024 692.732C1008.34 696.288 988.816 705.323 975.315 714.097C969.507 717.872 964.154 722.267 958.762 726.602Q973.574 705.959 989.907 686.497Q1006.24 667.035 1024 648.867Z"/>
	<path fill="white" d="M618.79 180.437C618.17 191.311 617.943 202.73 618.787 213.587C619.272 219.832 621.019 226.481 620.768 232.702C620.441 240.833 617.832 249.558 616.335 257.578C614.29 268.54 612.806 279.533 611.344 290.582L609.49 284.907Q607.481 278.165 605.968 271.295Q604.456 264.424 603.447 257.462Q602.439 250.499 601.94 243.482Q601.441 236.465 601.455 229.43C601.486 219.73 601.529 201.138 606.888 193.134C610.033 188.437 614.784 184.41 618.79 180.437Z"/>
	<path fill="white" d="M499.219 335.352C501.898 338.508 506.526 349.676 509.311 354.318C517.138 367.361 528.51 377.482 539.653 387.61C534.479 391.658 529.189 395.554 524.5 400.17L523.487 400.82C522.95 400.751 522.866 400.77 522.29 400.522C519.471 399.308 516.395 395.845 514.224 393.73C502.879 382.68 489.968 368.907 484.851 353.689C489.894 347.739 494.62 341.648 499.219 335.352Z"/>
	<path fill="white" d="M539.054 756.665C547.417 755.597 556.422 757.881 564.761 758.655C573.791 759.494 581.969 758.912 590.901 757.656C581.667 763.042 571.302 765.913 561.613 770.288C556.462 772.615 551.36 776.199 545.961 777.806C541.4 779.163 535.427 778.955 530.621 779.359C515.413 780.766 501.768 783.229 487.803 789.727Q488.443 786.047 489.129 782.376C501.023 768.965 521.467 759.263 539.054 756.665Z"/>
	<path fill="white" d="M264.436 574.547Q271.96 575.217 279.5 575.664C280.156 577.007 280.858 578.385 281.37 579.79C287.797 597.424 271.069 612.849 264.422 627.375C261.554 633.643 261.526 640.456 264.049 646.855C268.645 658.506 279.702 665.477 290.649 670.274L277.453 672.145C265.277 673.885 253.89 677.214 242.176 680.838C245.007 674.021 248.932 667.662 251.779 660.806C260.233 640.448 265.434 617.249 265.552 595.127C265.589 588.248 264.614 581.421 264.436 574.547Z"/>
	<path fill="white" d="M606.645 633.467C608.832 634.579 611.019 636.542 613.146 637.866C622.558 643.723 629.788 646.328 640.904 645.882Q639.502 654.895 638.356 663.945C628.303 668.836 620.77 671.972 609.471 669.791C600.692 667.071 593.304 662.155 585.248 657.927C581.322 655.868 577.176 654.266 573.322 652.077C586.014 647.712 595.967 641.448 606.645 633.467Z"/>
	<path fill="white" d="M469.501 118.435C478.049 129.377 483.77 142.989 488.359 156.026C483.083 173.751 479.847 191.133 481.465 209.729C481.388 209.74 481.31 209.778 481.233 209.763C477.573 209.037 465.45 194.671 462.331 191.21Q462.298 182.051 462.731 172.903Q463.164 163.754 464.062 154.64Q464.96 145.525 466.321 136.468Q467.682 127.411 469.501 118.435Z"/>
	<path fill="white" d="M435.518 403.89C436.754 404.767 442.204 420.215 443.309 422.584C450.438 437.864 460.978 451.903 471.828 464.707C465.19 465.867 458.601 466.356 451.876 466.542C450.98 466.597 450.547 466.533 449.729 466.108C440.766 461.451 424.705 440.673 420.062 432.13C417.988 428.314 416.741 424.813 415.693 420.595Q425.709 412.365 435.518 403.89Z"/>
	<path fill="white" d="M956.707 293.921C962.231 297.197 967.469 301.35 972.761 305.015C990.508 317.307 1002.78 322.798 1024 327.043L1024 373.731C999.28 349.449 977.443 321.601 956.707 293.921Z"/>
	<path fill="white" d="M638.71 732.883C640.69 735.282 644.628 749.511 646.657 753.816C651.218 763.49 657.272 771.931 663.809 780.326C655.78 780.959 647.638 782.594 639.662 783.792C633.575 781.531 628.007 778.668 622.849 774.724C618.555 771.373 616.398 766.761 612.5 763.202C607.544 761.603 594.183 762.552 588.61 763.114C593.167 760.662 597.551 757.876 602.114 755.423C615.424 748.265 626.837 742.539 638.71 732.883Z"/>
	<path fill="white" d="M834.125 114.432L834.783 114.624C833.172 117.201 827.372 120.064 824.747 121.906C809.737 132.443 795.115 145.348 783.982 159.968C776.758 169.455 771.085 180.121 768.415 191.798C767.228 196.99 766.511 202.641 764.485 207.576C759.251 220.323 738.941 239.185 727.798 247.494L727.396 247.488L726.998 247.005Q728.565 242.417 730.219 237.86C733.654 228.474 738.139 219.278 742.47 210.28C763.537 166.515 789.501 135.158 834.125 114.432Z"/>
	<path fill="white" d="M739.178 185.949L739.434 186.103C739.946 188.447 728.032 210.312 726.316 214.307C714.17 242.571 701.161 273.351 703.578 304.751C701.977 302.176 700.441 299.556 698.88 296.956C692.008 283.813 688.965 267.248 691.305 252.569C695.61 225.561 717.787 201.546 739.178 185.949Z"/>
	<path fill="white" d="M661.906 621.439Q662.279 623.465 662.733 625.475C666.883 643.599 676.516 657.163 692.267 666.954C693.528 678.288 696.093 689.324 698.52 700.449C695.877 700.105 693.24 699.674 690.604 699.279C688.685 698.718 686.792 698.115 684.927 697.392C669.549 691.429 658.301 680.653 651.729 665.569C654.49 650.712 657.336 635.868 661.906 621.439Z"/>
	<path fill="white" d="M468.033 673.653C486.99 682.649 507.089 684.021 526.973 677.163C516.514 690.947 512.635 695.183 497.874 704.543C483.279 713.485 462.383 715.628 445.706 713.599C456.219 700.843 461.99 688.833 468.033 673.653Z"/>
	<path fill="white" d="M538.61 495.175L539.22 495.276L539.712 496.078C536.612 512.883 512.468 531.96 498.679 540.869C491.184 545.712 483.032 549.376 475.809 554.685C468.317 560.191 461.653 566.619 456.412 574.309C456.21 574.581 455.9 574.751 455.633 574.96C455.604 568.068 474.693 536.615 479.666 530.098C494.249 510.985 514.66 498.322 538.61 495.175Z"/>
	<path fill="white" d="M588.949 534.704C600.469 534.067 612.353 537.559 622.797 542.103C628.248 556.074 627.536 573.449 624.572 587.882C619.906 585.467 615.609 582.516 611.298 579.531C603.401 573.761 596.162 567.15 588.72 560.822C580.798 554.085 572.67 547.539 565.008 540.507C573.072 537.686 580.421 535.475 588.949 534.704Z"/>
	<path fill="white" d="M464.558 635.625C489.799 647.961 520.412 658.656 548.954 657.172C544.672 660.061 540.732 663.383 536.852 666.782C531.202 671.307 525.27 673.821 518.271 675.621C502.116 679.777 483.757 678.2 469.263 669.638C471.781 656.816 470.342 647.297 464.558 635.625Z"/>
	<path fill="white" d="M243.253 717.045L243.983 717.066C244.008 717.846 243.704 717.817 243.112 718.335C240.336 720.763 237.276 723.009 234.692 725.643C228.474 731.98 222.716 741.655 221.856 750.606C214.945 754.774 208.431 759.305 202.983 765.327C193.261 776.073 190.856 787.054 191.552 801.177C189.749 798.29 188.154 795.239 186.491 792.267C178.846 778.316 176.976 764.95 178.931 749.3C194.492 734.476 222.556 722.575 243.253 717.045Z"/>
	<path fill="white" d="M457.351 383.441C459.494 386.263 461.406 396.94 462.938 401.089C470.387 421.266 481.917 440.504 497.023 455.919C490.612 458.401 484.573 461.699 478.11 464.13C477.147 464.014 477.452 464.148 476.599 463.647C473.296 461.71 470.08 457.47 467.679 454.515C455.352 439.35 443.453 420.545 438.872 401.478Q447.995 392.34 457.351 383.441Z"/>
	<path fill="white" d="M697.567 148.215C701.68 148.031 705.715 148.057 709.828 148.245Q706.577 149.082 703.405 150.18C670.881 161.46 641.842 188.244 626.999 219.127L623.169 227.814C622.593 218.945 618.837 181.088 624.148 175.209C626.556 172.543 629.983 170.377 632.926 168.305C651.899 154.944 674.721 149.4 697.567 148.215Z"/>
	<path fill="white" d="M319.615 707.304C321.525 707.085 323.459 707.006 325.379 706.881C314.784 715.014 307.69 726.047 297.486 734.586C274.36 734.645 252.987 737.104 231.255 745.677C230.181 746.137 229.294 746.434 228.136 746.599L227.398 745.788C227.222 741.828 231.911 735.902 234.296 732.84C239.958 725.574 247.517 718.543 256.054 714.81C270.117 708.662 303.003 709.296 319.615 707.304Z"/>
	<path fill="white" d="M481.37 357.374C485.012 384.633 494.828 407.097 508.604 430.697C505.373 440.486 506.722 445.313 499.478 453.768L493.897 447.561C477.446 426.369 466.09 406.918 460.87 380.098C467.949 372.71 474.397 364.834 481.37 357.374Z"/>
	<path fill="white" d="M561.768 247.344C563.423 249.466 564.5 259.783 565.275 263.056C567.059 270.594 569.464 278.193 572.204 285.437C579.969 305.966 590.328 323.875 603.727 341.165L600.537 345.946C596.597 343.238 592.735 340.401 588.843 337.624C568.876 322.748 549.326 305.598 537.702 283.173C544.912 270.815 553.294 258.866 561.768 247.344Z"/>
	<path fill="white" d="M132.938 828.865C146.14 829.394 158.734 834.214 169.629 841.51L169.492 842.361C163.394 881.471 173.416 912.367 196.483 943.909C194.843 944.892 192.361 945.122 190.487 945.526C180.163 939.611 169.459 932.499 162.836 922.344C159.309 916.937 157.761 910.859 156.559 904.584C150.199 871.397 157.227 858.515 132.938 828.865Z"/>
	<path fill="white" d="M517.769 310.803C521.85 314.901 524.038 321.663 527.48 326.443C539.592 343.266 554.764 356.816 571.988 368.193Q561.512 373.875 551.252 379.937C548.81 381.661 545.963 383.081 543.376 384.6Q542.331 384.002 541.318 383.352C524.416 372.621 506.882 350.643 502.488 330.887C508.007 324.503 512.696 317.526 517.769 310.803Z"/>
	<path fill="white" d="M456.393 472.917C468.776 473.621 493.724 479.024 505.397 483.306C509.611 484.851 513.594 486.97 517.578 489.023C507.535 494.231 497.51 499.372 487.926 505.403C482.222 508.981 477.045 513.371 471.849 517.634C468.432 517.411 464.898 516.872 461.549 516.166C453.943 514.563 446.15 511.643 441.861 504.704C439.549 500.962 439.09 496.76 440.188 492.535C442.444 483.857 448.906 477.356 456.393 472.917Z"/>
	<path fill="white" d="M533.279 782.699C535.561 782.342 538.102 782.467 540.422 782.383C499.341 806.591 472.689 838.324 454.994 882.528C454.441 883.961 453.721 885.333 453.052 886.714C451.515 859.264 452.979 831.983 471.289 809.759C487.888 789.611 508.483 785.214 533.279 782.699Z"/>
	<path fill="white" d="M1024 782.146L1024 843.974Q1020.76 844.099 1017.52 844.092C1006.31 844.065 997.108 839.836 987.591 834.253C984.297 832.321 980.728 830.348 978.076 827.547C972.867 822.044 972.731 812.853 973.09 805.752C980.976 802.58 988.844 799.889 996.437 795.989C1006 791.078 1013.64 785.724 1024 782.146Z"/>
	<path fill="white" d="M264.546 923.56C271.034 929.327 277.998 933.907 285.991 937.334C310.386 947.793 330.403 943.402 354.026 934.021C362.841 943.658 366.92 950.462 378.863 956.997L371.904 959.173C360.294 962.396 348.598 964.385 336.512 964.329C306.266 964.189 274.68 953.159 253.191 931.446C257.091 928.978 260.807 926.261 264.546 923.56Z"/>
	<path fill="white" d="M825.214 324.693C831.695 324.097 838.78 324.89 845.1 326.379C872.485 332.831 888.899 357.636 902.839 380.018C899.154 377.37 895.227 375.279 891.176 373.252Q886.692 371.252 882.01 369.769C867.456 365.291 855.507 367.361 842.233 374.298C833.523 357.973 824.746 341.631 813.563 326.832C817.387 325.668 821.252 325.117 825.214 324.693Z"/>
	<path fill="white" d="M901.493 720.546C902.41 720.488 903.331 720.434 904.251 720.453C907.373 720.517 911.076 722.261 913.171 724.568C916.403 728.127 916.803 733.604 916.454 738.175C915.149 755.316 904.573 772.147 891.737 783.067Q883.149 778.436 874.123 774.73C866.391 771.512 858.816 769.791 850.544 768.739C865.181 754.759 881.653 725.977 901.493 720.546Z"/>
	<path fill="white" d="M734.078 464.383C736.532 468.751 738.381 473.504 740.849 477.903C746.821 488.546 754.91 498.667 763.191 507.633C770.827 515.901 779.95 523.474 786.537 532.588C784.521 537.57 782.406 540.097 778.032 543.062C767.315 548.789 752.634 546.538 741.52 543.244C740.684 541.776 739.912 540.263 739.144 538.759C727.253 515.478 726.137 489.021 734.078 464.383Z"/>
	<path fill="white" d="M535.239 286.352C537.536 288.917 539.376 292.528 541.371 295.37Q547.811 304.654 555.451 312.977Q561.817 319.715 568.733 325.887Q575.649 332.06 583.065 337.622C587.982 341.333 593.388 344.526 598.019 348.587C598.182 348.73 598.341 348.875 598.502 349.02C593.064 355.328 587.788 359.471 580.71 363.821C579.075 364.878 577.407 365.706 575.649 366.539C553.401 353.824 530.971 330.718 520.783 307.329C525.845 300.499 529.955 293.034 535.239 286.352Z"/>
	<path fill="white" d="M428.768 619.926C429.157 623.776 428.269 628.506 427.876 632.374C426.541 645.506 425.793 658.491 417.957 669.664C401.433 693.224 372.293 694.984 346.442 699.556C346.359 698.481 348.123 697.371 348.849 696.769C361.066 686.638 371.275 675.096 375.388 659.399C396.012 649.732 412.94 636.137 428.768 619.926Z"/>
	<path fill="white" d="M972.676 216.53C972.203 213.548 971.35 210.148 971.468 207.135C971.726 200.513 976.426 194.049 981.151 189.699C993.145 178.655 1008.25 176.108 1024 176.681L1024 238.64C1019.46 238.038 1014.29 238.296 1009.91 237.038C1004.88 235.595 995.97 228.553 990.768 225.564C984.894 222.19 978.826 219.353 972.676 216.53Z"/>
	<path fill="white" d="M485.082 714.635L485.276 714.796C485.033 716.603 477.264 723.609 475.717 725.436C471.57 730.331 467.908 735.566 464.154 740.759C459.469 747.241 454.024 754.234 445.991 756.57C438.425 758.77 431.04 755.842 423.586 754.677C419.553 754.047 415.418 753.897 411.342 753.881C393.624 753.811 378.304 758.369 361.117 761.12L359.577 761.368C360.113 758.689 392.803 740.219 397.432 738.335C405.536 735.035 414.21 733.867 422.185 729.987C429.466 726.446 435.722 721.568 442.1 716.655C455.634 720.039 471.727 717.905 485.082 714.635Z"/>
	<path fill="white" d="M658.574 468.735C660.91 470.201 663.16 472.764 664.916 474.892C673.268 485.011 675.498 497.695 674.291 510.452C672.798 526.247 666.667 544.9 653.908 555.225C651.42 557.238 644.474 562.393 641.34 562.04C640.205 560.697 640.332 559.427 640.102 557.706C636.78 538.596 630.462 523.147 619.198 507.317C629.943 507.405 641.509 506.566 649.656 498.645C658.075 490.46 658.576 479.706 658.574 468.735Z"/>
	<path fill="white" d="M687.919 380.715C693.597 380.725 699.207 381.045 704.801 382.069C714.753 383.892 724.98 387.631 730.818 396.419C734.372 401.77 735.541 408.102 734.061 414.355C730.525 429.299 717.676 432.164 706.443 439.369L705.842 439.759L701.974 442.448C694.277 418.61 679.659 399.153 659.945 383.845C669.261 382.515 678.507 381.111 687.919 380.715Z"/>
	<path fill="white" d="M789.096 536.357C790.761 537.284 792.195 539.301 793.441 540.726C803.444 552.175 810.659 565.575 817.397 579.1C813.831 583.981 810.168 587.928 804.729 590.721C794.852 595.793 783.815 595.993 773.394 592.59C767.565 590.254 762.414 586.98 756.902 584.032C753.722 571.594 748.978 560.021 744.137 548.174C753.883 550.089 764.83 551.494 774.517 548.544C781.37 546.457 785.76 542.549 789.096 536.357Z"/>
	<path fill="white" d="M289.855 900.309C292.478 901.006 295.335 903.301 297.82 904.569C303.184 907.306 309.548 909.094 315.471 910.086C327.248 912.057 338.437 910.882 349.793 907.365C354.263 905.98 363.552 901.662 367.857 902.115C367.969 902.127 368.768 902.285 368.919 902.47C371.206 905.269 375.627 914.235 378.564 918.367C371.062 921.533 363.885 925.495 356.372 928.695C343.693 933.866 331.131 938.771 317.266 939.408Q315.575 939.469 313.883 939.448Q312.191 939.427 310.502 939.324Q308.813 939.221 307.131 939.035Q305.449 938.85 303.778 938.583Q302.107 938.317 300.451 937.969Q298.795 937.621 297.158 937.194Q295.521 936.766 293.907 936.259Q292.292 935.752 290.704 935.167Q289.117 934.583 287.559 933.921Q286.001 933.26 284.478 932.524Q282.954 931.788 281.468 930.979Q279.982 930.169 278.537 929.289Q277.092 928.408 275.692 927.458Q274.292 926.508 272.939 925.492Q271.586 924.475 270.285 923.394Q268.983 922.312 267.736 921.169C275.564 914.554 282.722 907.67 289.855 900.309Z"/>
	<path fill="white" d="M402.381 856.519C403.6 857.547 403.521 868.93 403.749 871.219C406.081 894.56 413.921 909.613 431.953 924.329C427.801 927.6 423.53 930.666 419.452 934.043C412.253 933.372 406.056 932.14 399.359 929.363C396.572 927.996 393.961 926.509 391.431 924.703C373.144 911.652 367.653 889.889 364.145 868.835C377.359 865.812 389.863 861.671 402.381 856.519Z"/>
	<path fill="white" d="M650.584 673.214C652.126 674.254 657.653 682.815 660.362 685.637C670.864 696.576 684.215 703.267 699.436 703.541C703.863 717.842 710.487 731.297 714.961 745.54C713.647 746.798 712.163 747.803 710.684 748.857C706.518 750.962 702.82 752.105 698.056 751.968C684.33 751.575 670.531 742.758 661.566 732.849C657.074 727.883 652.765 721.772 650.706 715.336C647.43 705.092 649.958 684.527 650.584 673.214Z"/>
	<path fill="white" d="M564.544 654.466C576.442 653.954 590.777 666.461 601.626 670.933C615.207 676.531 624.661 674.194 637.65 668.704C636.546 678.671 636.076 688.576 635.876 698.599C623.565 702.628 612.625 703.23 600.042 699.932C590.761 697.645 582.482 692.1 574.018 687.835C554.751 678.124 543.732 681.144 524.096 687.663C532.09 672.373 549.152 661.292 564.544 654.466Z"/>
	<path fill="white" d="M697.087 187.684C702.64 187.008 708.502 187.533 713.968 188.618C698.522 205.123 680.708 224.713 675.805 247.39C653.896 255.235 645.157 263.563 634.467 284.211C632.558 288.39 630.934 292.74 629.263 297.021C631.247 266.773 635.782 236.72 655.074 212.156C665.981 198.268 679.394 189.802 697.087 187.684Z"/>
	<path fill="white" d="M591.539 441.905C598.248 443.2 605.209 443.49 611.97 444.614C626.383 447.009 642.82 453.672 653.818 463.452C655.43 470.007 655.804 477.28 654.142 483.868C652.251 491.364 647.996 496.184 641.49 500.021C633.045 503.905 625.253 502.978 616.282 503.819L615.647 503.883C607.551 495.189 600.041 490.653 588.911 486.518C593.378 480.165 597.969 473.642 599.068 465.756C600.258 457.221 596.502 448.643 591.539 441.905Z"/>
	<path fill="white" d="M674.984 251.554C675.762 253.421 674.523 266.45 675.127 270.538C676.944 282.845 681.375 293.758 684.731 305.589C675.425 306.786 666.977 310.033 659.986 316.394C646.65 328.528 643.296 346.872 642.398 364.04L641.799 364.135C638.608 358.517 635.636 352.737 633.45 346.645C626.442 327.124 629.058 303.69 637.962 285.241C646.404 267.749 656.698 257.926 674.984 251.554Z"/>
	<path fill="white" d="M434.64 474.21C438.951 473.951 443.354 474.291 447.668 474.439C442.267 479.777 437.758 485.824 436.414 493.495C435.489 498.77 436.596 503.729 439.781 508.048C446.726 517.464 457.71 519.371 468.525 520.963C463.81 526.048 459.859 531.549 455.79 537.15C449.874 539.775 443.576 541.042 437.185 541.814C427.134 542.791 405.93 544.601 397.378 539.136C395.729 538.082 394.08 536.531 393.708 534.528C392.8 529.627 401.793 505.612 404.219 500.148Q406.331 495.353 409.374 491.088C415.282 482.853 424.494 475.896 434.64 474.21Z"/>
	<path fill="white" d="M873.22 231.317C880.124 234.956 885.741 240.903 889.527 247.669C894.004 255.672 897.818 266.222 895.094 275.369Q894.945 275.881 894.771 276.384Q894.596 276.888 894.397 277.382Q894.198 277.876 893.974 278.36Q893.75 278.843 893.502 279.315Q893.254 279.787 892.983 280.245Q892.712 280.704 892.418 281.148Q892.124 281.593 891.808 282.022Q891.492 282.451 891.155 282.864Q890.818 283.277 890.461 283.672Q890.104 284.068 889.727 284.445Q889.351 284.822 888.956 285.179Q888.561 285.537 888.148 285.874Q887.736 286.211 887.307 286.528Q886.878 286.844 886.434 287.138Q885.989 287.432 885.531 287.704Q885.073 287.976 884.601 288.224C870.796 295.359 846.809 288.082 832.875 283.722C822.006 280.505 810.762 277.674 800.165 273.668C805.753 271.118 812.036 269.591 817.851 267.569C842.34 259.054 856.254 251.567 873.22 231.317Z"/>
	<path fill="white" d="M370.003 565.193C383.171 564.037 395.557 569.104 408.155 571.998C415.798 573.754 423.098 574.55 430.933 574.51C421.466 588.338 410.428 598.506 396.223 607.179C389.286 610.923 382.067 614.501 374.254 615.958C367.079 617.296 358.912 617.002 352.805 612.569C349.07 609.858 345.811 605.402 345.155 600.757Q344.976 599.461 345.051 598.154Q345.125 596.848 345.45 595.58C346.654 590.913 353.49 574.447 356.383 570.872C360.047 566.344 364.55 565.743 370.003 565.193Z"/>
	<path fill="white" d="M571.193 441.708C576.359 441.342 581.547 441.404 586.723 441.383C590.784 446.082 593.928 451.421 595.24 457.537C597.696 468.997 591.416 476.72 585.536 485.592C570.2 482.181 555.929 481.193 540.286 482.781C535.086 483.612 529.879 484.799 524.725 485.881Q521.33 482.484 518.642 478.504C513.149 470.499 513.577 463.493 515.309 454.475C522.626 451.025 530.293 447.194 538.123 445.119C548.476 442.374 560.484 442.483 571.193 441.708Z"/>
	<path fill="white" d="M599.889 200.4C600.06 204.969 598.907 210.232 598.476 214.826C597.665 223.482 597.483 232.394 598.143 241.059C599.34 256.771 602.418 272.316 606.236 287.587C607.517 292.706 610.222 297.743 610.75 302.993C611.697 312.401 608.664 328.55 605.523 337.299C600.941 332.45 597.263 326.898 593.549 321.38C577.972 295.338 570.016 273.651 564.791 243.713C577.979 230.723 588.756 215.155 599.889 200.4Z"/>
	<path fill="white" d="M633.363 408.689C641.034 407.788 649.395 408.733 656.795 410.888C665.901 413.538 680.13 418.951 684.797 427.84C687.172 432.363 688.41 437.746 689.516 442.693C694.491 464.929 692.907 486.658 686.385 508.396C685.691 499.399 685.448 491.81 682.676 483.125C680.439 477.301 677.721 471.679 674.048 466.616C656.221 442.043 627.019 431.515 598.177 427.023C607.798 417.375 619.739 410.314 633.363 408.689Z"/>
	<path fill="white" d="M970.802 576.509C972.747 576.531 974.287 576.767 976.04 577.678C980.903 580.206 983.587 585.519 985.052 590.591C992.408 616.06 974.192 665.86 961.613 688.6C963.435 679.371 964.022 669.503 961.044 660.469C959.953 658.1 958.667 655.677 956.87 653.765C953.95 650.66 950.135 649.02 945.869 649.097C937.396 649.249 931.266 655.266 925.708 660.883C935.403 643.108 940.889 624.202 948.515 605.61C953.206 594.172 958.772 581.56 970.802 576.509Z"/>
	<path fill="white" d="M602.899 370.03C612.553 369.28 625.729 372.477 634.961 375.381C637.65 376.226 640.377 377.269 642.792 378.74C645.564 380.428 648.075 382.947 650.547 385.069C661.287 394.287 672.504 404.388 679.103 417.115C666.627 409.727 654.885 405.397 640.317 404.999C639.625 404.999 638.941 405.006 638.249 405.033C620.083 405.736 605.795 413.673 593.549 426.966C589.556 426.678 585.55 426.67 581.55 426.614C576.231 414.127 573.477 401.024 575.462 387.447C585.164 382.225 593.893 376.342 602.899 370.03Z"/>
	<path fill="white" d="M944.48 653.048C947.543 652.893 950.185 653.28 952.671 655.217C956.713 658.365 957.999 664.137 958.503 668.992C959.638 679.915 957.724 692.627 953.482 702.753C946.99 718.249 925.954 744.318 914.899 758.016C916.995 752.913 918.801 747.955 919.864 742.53C920.591 737.089 920.975 731.821 918.642 726.65C916.837 722.649 913.682 719.467 909.532 717.946C902.912 715.521 896.613 718.02 890.634 720.842C896.085 712.184 901.793 703.693 907.184 694.997C916.401 680.13 926.177 658.019 944.48 653.048Z"/>
	<path fill="white" d="M651.907 728.324C654.709 730.216 657.311 734.362 659.664 736.898C667.723 745.581 679.236 752.517 690.891 754.869C700.513 756.81 708.149 755.244 716.331 749.847C723.477 762.511 726.614 791.244 725.783 805.716C725.369 812.924 723.981 819.724 722.156 826.687C720.897 830.129 719.395 833.319 717.711 836.572C711.595 822.718 703.376 815.272 693.082 804.728C670.169 781.258 658.977 760.556 651.907 728.324Z"/>
	<path fill="white" d="M547.286 719.699C555.669 719.219 563.206 722.162 570.824 725.234C588.081 732.191 605.614 734.356 623.867 729.852C628.271 728.766 632.467 727.117 636.801 725.801C637.768 725.507 637.321 725.452 638.157 725.898L638.258 727.109C637.54 728.661 636.557 729.693 635.282 730.826C630.784 734.826 625.434 738.084 620.223 741.068C603.792 750.478 587.415 756.049 568.309 754.795C561.399 754.271 554.534 753.137 547.626 752.658C528.364 751.321 504.107 762.982 489.912 775.386C493.244 763.377 497.153 752.086 505.196 742.366C516.168 729.108 530.127 721.275 547.286 719.699Z"/>
	<path fill="white" d="M978.096 487.064C979.81 486.832 981.45 486.773 983.125 487.302C987.948 488.825 991.242 493.096 993.565 497.371C996.326 502.453 998.055 508.146 998.892 513.857C1002.2 536.427 997.22 582.45 990.72 604.08C990.672 602.22 990.621 600.353 990.47 598.499C989.763 589.778 987.033 581.15 980.153 575.364C977.698 573.893 975.467 573.008 972.75 572.181Q972.166 572.306 971.585 572.447C960.145 575.25 955.027 584.042 949.315 593.325C953.094 577.693 955.67 562.348 957.753 546.412C959.269 534.806 960.039 522.505 963.095 511.232C965.636 501.858 969.269 492.138 978.096 487.064Z"/>
	<path fill="white" d="M983.753 390.923C983.835 391.005 983.933 391.073 983.999 391.169C987.168 395.745 988.681 403.817 990.152 409.26C998.904 441.64 1002.4 471.97 1001.51 505.467C998.406 497.554 994.349 488.48 986.266 484.532C982.928 482.901 979.067 482.43 975.559 483.801C969.092 486.327 965.118 494.254 962.481 500.241C960.991 504.062 959.826 507.965 958.644 511.889Q958.553 505.591 958.219 499.3Q957.884 493.01 957.307 486.738Q956.729 480.465 955.909 474.219Q955.089 467.974 954.028 461.765Q952.967 455.556 951.667 449.392Q950.366 443.229 948.828 437.12Q947.29 431.012 945.517 424.968Q943.744 418.923 941.738 412.952C947.5 418.46 954.023 423.484 962.384 423.781C966.928 423.942 970.911 422.291 974.189 419.174C981.767 411.968 983.526 400.868 983.753 390.923Z"/>
	<path fill="white" d="M834.313 695.955C836.884 699.956 835.769 761.484 835.434 768.71C817.997 771.463 802.568 787.749 789.425 798.61C789.439 788.842 788.31 779.468 786.045 769.974C780.654 751.638 771.455 735.435 762.38 718.767C765.801 720.482 769.218 722.056 772.853 723.272C786.084 727.698 801.183 727.339 813.742 720.973C824.47 715.535 830.574 707.196 834.313 695.955Z"/>
	<path fill="white" d="M946.559 312.386C946.867 312.644 947.044 312.77 947.311 313.118C957.199 326.029 975.699 364.229 979.311 379.776C980.201 383.608 980.192 387.793 980.021 391.709C979.662 399.892 978.135 410.609 971.611 416.309C968.673 418.875 964.972 419.984 961.104 419.565C952.672 418.651 946.283 411.907 941.146 405.775C933.253 395.803 928.145 384.517 921.584 373.708C916.161 364.773 909.71 356.515 903.583 348.059C912.341 351.448 923.638 357.543 933.161 355.174C937.981 353.975 941.726 350.873 944.231 346.634C950.361 336.262 949.196 323.605 946.559 312.386Z"/>
	<path fill="white" d="M453.426 584.415C471.235 594.618 475.128 601.813 488.075 616.531C498.639 628.539 515.83 636.757 531.769 637.617C547.386 638.46 560.875 631.863 571.08 620.114C574.145 616.585 576.564 612.307 580.029 609.174C583.111 608.488 584.637 615.362 587.124 618.194C591.551 623.234 598.146 625.606 604.149 628.199L599.874 632.367C585.653 644.736 562.691 651.971 544.064 652.454C510.685 653.319 466.142 637.337 441.825 614.432C445.086 604.237 447.96 593.696 453.426 584.415Z"/>
	<path fill="white" d="M646.793 832.685C667.683 829.454 688.904 838.492 706.369 848.909C685.537 862.087 650.072 871.702 626.108 877.031C609.475 881.062 592.721 883.969 575.946 887.301C578.007 879.431 582.192 871.779 587.219 865.423C601.653 847.169 623.82 835.429 646.793 832.685Z"/>
	<path fill="white" d="M228.484 566.27C233.182 567.111 237.888 568.309 242.555 569.326C243.609 575.28 243.622 581.249 243.536 587.275C243.193 611.212 237.506 633.721 227.809 655.53C206.726 702.947 163.638 736.484 116.13 754.777L114.02 755.352C110.532 754.156 105.324 744.524 103.077 741.131C134.362 731.475 164.889 713.605 186.7 688.996C212.215 660.206 228.181 623.134 229.24 584.449C229.405 578.415 228.845 572.293 228.484 566.27Z"/>
	<path fill="white" d="M586.72 499.569C587.396 499.696 588.033 499.87 588.683 500.098C604.778 505.744 614.81 523.558 621.684 537.993C600.073 529.258 583.493 530.05 561.961 537.882C559.628 536.189 549.596 527.222 548.147 526.863C547.414 526.682 547.062 527.123 546.469 527.48L546.392 528.553C547.114 530.088 548.031 531.19 549.261 532.361C554.84 537.671 561.492 542.302 567.499 547.159C575.392 553.54 583.002 560.293 590.649 566.967C591.113 567.432 591.496 568.008 591.895 568.531C592.758 576.302 585.888 587.324 581.581 593.427C568.944 582.741 556.809 573.931 539.299 574.138C535.025 574.188 530.666 574.924 526.386 575.238C525.339 574.679 524.911 574.137 524.443 573.061C521.767 566.92 524.535 552.177 527.068 545.963C529.367 540.324 533.002 538.558 537.088 534.526C540.324 531.333 543.291 527.862 546.669 524.812C558.205 514.398 572.443 505.586 586.72 499.569Z"/>
	<path fill="white" d="M369.33 661.959C369.842 661.855 369.529 661.859 370.238 662.192C370.21 662.388 370.195 662.587 370.152 662.78C369.472 665.835 367.282 669.284 365.649 671.942C358.576 683.456 347.29 696.629 333.97 700.879C322.139 704.655 308.143 704.472 295.799 705.26C268.095 707.03 230.261 712.331 206.396 727.035L205.805 727.181C205.92 726.865 205.992 726.531 206.149 726.234C207.685 723.327 219.311 712.218 222.364 708.571C226.113 704.094 235.674 689.386 239.041 686.9C242.299 684.494 247.699 683.424 251.535 682.242Q257.465 680.414 263.494 678.942Q269.523 677.47 275.629 676.36Q281.735 675.25 287.896 674.505Q294.057 673.76 300.251 673.384C312.657 672.582 325.204 672.593 337.522 670.796C348.554 669.187 359.011 666.106 369.33 661.959Z"/>
	<path fill="white" d="M723.253 495.938C723.344 496.057 723.451 496.165 723.527 496.293C724.829 498.5 725.382 508.554 725.995 511.877C726.895 516.76 728.01 522.124 729.758 526.772C734.809 540.2 741.958 552.648 747.236 565.967C761.8 602.723 753.922 635.793 742.865 671.934C742.357 673.771 741.651 675.592 741.043 677.401C737.53 670.878 735.094 663.81 732.521 656.878C721.047 625.958 713.1 591.696 715.484 558.525C716.993 537.53 721.487 516.888 723.253 495.938Z"/>
	<path fill="white" d="M819.195 583.439C827.391 599.842 828.234 620.42 830.415 638.418C825.582 647.81 819.243 655.249 808.899 658.577C794.13 663.329 778.618 659.648 765.283 652.68Q759.47 649.386 754.284 645.175C759.814 627.849 759.67 607.586 758.311 589.694C768.503 595.194 777.906 599.326 789.755 598.631C801.981 597.914 811.231 592.44 819.195 583.439Z"/>
	<path fill="white" d="M864.362 371.196C867.32 370.943 870.441 371.121 873.38 371.538C888.96 373.748 903.853 383.861 913.117 396.378C918.043 403.033 920.526 411.424 922.994 419.239C933.658 453.004 935.552 487.177 930.386 522.132C929.121 517.399 928.371 512.424 927.414 507.614C919.546 472.886 907.077 448.179 881.941 422.728C867.927 408.537 854.279 394.721 843.828 377.557C850.531 374.168 856.857 371.864 864.362 371.196Z"/>
	<path fill="white" d="M282.567 738.707C298.089 736.529 318.83 741.186 334.69 742.523C351.382 743.929 367.124 742.755 383.691 740.732C365.359 751.576 353.873 762.919 331.705 766.671C323.594 768.044 315.269 767.968 307.207 769.433L306.678 769.534C302.041 764.543 297.359 760.175 290.823 757.86C276.869 752.917 259.769 757.332 246.955 763.54C238.582 768.241 231.269 774.505 225.966 782.565C216.899 796.346 214.008 812.223 217.418 828.301C208.046 820.435 196.891 809.987 195.525 797.08C194.438 786.812 198.443 776.385 204.996 768.597C223.104 747.077 255.909 740.919 282.567 738.707Z"/>
	<path fill="white" d="M681.993 309.618C682.242 309.582 682.491 309.54 682.742 309.511C689.205 308.746 689.001 315.612 691.742 320.529C693.481 323.649 696.633 326.545 699.398 328.776C711.577 338.604 725.828 342.675 741.262 340.979C738.889 343.299 736.542 345.76 734.527 348.399C725.998 359.567 723.409 371.444 725.202 385.171C720.034 382.61 714.554 380.972 709.045 379.335C697.089 376.762 685.159 376.832 673.07 378.445C666.933 379.264 660.695 380.421 654.508 380.637L653.723 380.66C651.405 378.998 649.344 377.074 647.242 375.152C647.759 370.891 646.793 366.34 646.549 362.051C645.873 350.152 649.386 336.809 655.902 326.801C662.136 317.225 670.965 311.97 681.993 309.618Z"/>
	<path fill="white" d="M895.479 250.732C896.398 251.317 897.228 252 898.069 252.689C916.096 267.475 942.738 300.618 944.845 324.05C945.555 331.95 944.023 341.585 938.585 347.654C936.15 350.372 932.99 351.714 929.367 351.839C919.245 352.188 901.255 343.055 893.85 336.315C875.595 317.034 859.332 304.043 837.095 289.25C850.819 293.653 870.293 297.96 884.119 292.601Q884.68 292.388 885.229 292.147Q885.779 291.907 886.316 291.639Q886.852 291.37 887.375 291.076Q887.897 290.781 888.404 290.46Q888.911 290.14 889.402 289.794Q889.892 289.448 890.364 289.078Q890.836 288.708 891.289 288.315Q891.742 287.921 892.175 287.506Q892.608 287.09 893.019 286.653Q893.43 286.216 893.819 285.759Q894.208 285.303 894.573 284.827Q894.938 284.351 895.279 283.857Q895.62 283.363 895.935 282.853Q896.251 282.343 896.54 281.817Q896.829 281.292 897.092 280.752Q897.355 280.213 897.59 279.661C901.79 269.853 899.308 260.165 895.479 250.732Z"/>
	<path fill="white" d="M516.496 112.869C530.374 118.123 545.599 122.91 558.463 130.295C578.667 141.895 592.204 161.651 598.256 183.868C592.584 191.72 586.293 199.228 580.243 206.798L564.85 225.69C562.616 223.53 559.761 222.65 557.589 220.317C542.113 203.693 533.737 180.635 528.537 158.855C526.496 150.302 525.214 141.56 523.081 133.032C521.362 126.156 518.998 119.492 516.496 112.869Z"/>
	<path fill="white" d="M830.739 646.34C832.994 654.04 833.965 672.245 833.324 680.372C832.943 685.216 831.952 690.135 830.542 694.782C827.477 704.88 821.589 712.623 812.195 717.607C801.176 723.454 787.151 724.109 775.344 720.371C762.392 716.272 759.211 713.756 753.038 701.919C749.79 695.518 746.085 689.326 743.214 682.741C747.303 671.906 749.683 660.51 753.819 649.762C767.609 659.948 784.791 666.334 802.118 664.111C814.954 662.464 822.971 656.332 830.739 646.34Z"/>
	<path fill="white" d="M750.927 339.901C765.165 345.882 778.688 359.032 795.503 355.422C802.512 353.916 806.448 349.411 810.096 343.638C815.363 350.748 823.566 362.787 826.738 370.833C829.179 377.027 827.961 385.519 825.284 391.515C821.631 399.694 815.74 404.065 807.649 407.211C789.136 411.604 771.957 398.833 753.333 402.03C746.771 403.157 742.717 405.865 738.972 411.217C738.663 399.23 736.469 399.877 731.503 390.553C727.417 382.881 727.7 373.124 730.121 364.989C733.501 353.631 740.54 345.446 750.927 339.901Z"/>
	<path fill="white" d="M395.334 513.506C394.681 520.956 388.077 527.903 390.278 535.747C391.26 539.247 393.847 541.774 397.014 543.402C408.12 549.113 440.435 546.342 452.301 542.402C443.639 558.057 438.04 574.388 432.604 591.356C421.952 600.149 411.461 607.199 399.273 613.678C375.458 626.339 348.66 638.844 321.24 630.269C312.249 627.457 302.585 621.613 298.268 612.898C296.041 608.4 295.838 603.723 297.502 599.005C301.088 588.834 310.524 582.607 318.448 576.054C321.562 573.479 324.83 570.262 328.362 568.311C332.066 566.263 336.625 565.427 340.542 563.609C354.536 556.134 365.901 545.852 376.986 534.683C377.114 543.115 377.778 552.151 375.007 560.238C371.105 560.755 366.972 561.141 363.17 562.158C357.206 563.753 353.633 566.673 350.597 572.018C346.499 579.229 339.694 596.54 342.069 604.501C343.721 610.034 347.928 614.861 352.997 617.561C360.987 621.816 371.514 621.271 379.981 618.776C399.689 612.968 415.979 599.448 429.003 584.067C431.863 580.69 435.281 576.98 437.24 573.003C437.864 571.737 438.014 571.094 437.574 569.772C437.199 569.642 436.846 569.394 436.449 569.384C435.163 569.351 433.275 569.989 431.948 570.188C427.813 570.809 423.453 570.965 419.295 570.452C406.559 568.879 392.778 563.482 379.195 561.277C381.073 551.266 380.994 541.42 381.009 531.277C386.26 525.643 390.845 519.744 395.334 513.506Z"/>
	<path fill="white" d="M191.866 802.885C194.077 805.155 195.028 809.359 196.908 812.049C205.297 824.052 217.329 834.786 230.905 840.411C227.397 845.475 224.89 850.825 223.067 856.71C215.425 881.385 219.622 906.85 231.597 929.39C227.021 931.817 222.144 933.83 217.436 935.995C211.868 938.574 206.079 940.581 200.317 942.67C182.438 920.049 171.006 891.537 171.449 862.503C171.751 842.718 177.22 817.183 191.866 802.885Z"/>
	<path fill="white" d="M314.611 573.192L314.688 573.62Q313.107 574.74 311.579 575.93C303.482 582.287 293.194 592.237 292.113 603.115C291.485 609.442 294.269 615.423 298.349 620.105C307.235 630.301 320.446 635.557 333.728 636.484Q336.975 636.731 340.232 636.744Q343.489 636.757 346.738 636.535Q349.988 636.313 353.212 635.858Q356.437 635.403 359.621 634.716C382.735 629.583 413.623 612.529 431.394 596.995C430.806 601.34 430.537 606.195 429.112 610.346C425.943 619.58 415.315 627.692 408.121 634.034C391.767 647.198 373.453 657.411 353.224 663.277C339.576 667.235 313.163 670.952 298.983 668.423C294.136 667.558 289.461 665.574 285.181 663.184C277.081 658.662 269.137 651.821 266.68 642.511C263.473 630.36 274.243 618.881 280.037 609.042C286.889 597.405 287.902 588.653 284.598 575.661C294.368 575.413 305.067 575.333 314.611 573.192Z"/>
	<path fill="white" d="M831.98 379.815C835.721 385.528 839.504 391.272 843.755 396.621C847.174 400.922 851.606 405.171 854.422 409.859C857.948 415.73 857.393 427.116 855.541 433.567C853.624 440.247 849.361 446.134 844.112 450.616C819.553 471.582 798.203 449.359 777.408 461.494C769.797 465.936 763.313 474.392 761.029 482.88L760.321 483.337C753.637 472.989 747.418 461.124 744.092 449.221C740.573 436.625 738.016 421.661 744.708 409.711C760.295 399.828 778.464 409.889 794.77 411.758C803.666 412.778 812.283 411.007 819.353 405.224C827.569 398.503 830.922 390.14 831.98 379.815Z"/>
	<path fill="white" d="M918.874 546.291C919.144 546.986 919.14 546.846 919.235 547.488C921.08 559.898 918.959 577.048 917.512 589.547C910.084 653.712 889.965 693.18 852.686 744.91C852.56 742.154 852.308 739.41 852.07 736.662Q850.898 715.599 848.13 694.686C845.869 676.456 841.946 658.38 845.794 640.027C849.007 624.701 856.012 612.002 869.887 604.057C877.119 599.917 884.777 596.496 891.737 591.884C907.895 581.177 915.167 564.691 918.874 546.291Z"/>
	<path fill="white" d="M903.051 480.924C913.495 499.534 918.632 529.166 914.353 550.094C910.631 568.295 900.658 582.71 884.551 591.932C878.203 595.567 871.352 598.482 865.263 602.538C852.354 611.138 845.897 622.486 842.816 637.489Q841.783 630.69 840.826 623.879C836.922 598.466 831.493 577.219 817.622 555.049C819.458 547.547 822.204 539.589 827.466 533.755C838.535 521.481 854.328 528.635 868.224 527.71C877.77 527.074 887.052 522.291 893.301 515.072C901.372 505.748 903.906 492.93 903.051 480.924Z"/>
	<path fill="white" d="M902.656 790.168C909.558 783.591 915.791 776.314 922.25 769.31C932.881 757.782 943.873 746.28 955.596 735.868C968.439 724.461 980.673 717.897 998.46 719.087C1008.98 719.791 1017.18 724.442 1024 732.351L1024 762.418C1021.35 767.68 1017.96 772.859 1014.09 777.305C994.527 799.739 957.551 806.879 928.985 808.865Q916.507 798.55 902.656 790.168Z"/>
	<path fill="white" d="M710.724 556.857C711.314 560.173 710.758 564.271 710.691 567.66Q710.527 575.165 710.862 582.664C711.771 603.951 714.49 625.755 719.639 646.442C723.983 663.895 729.828 681.329 737.416 697.648C741.734 706.935 746.107 716.244 750.929 725.28C765.917 753.372 780.521 778.357 773.114 811.548C764.904 816.857 756.936 822.548 748.819 827.999C743.888 831.066 738.965 834.021 733.834 836.745C744.92 807.148 736.856 772.591 725.485 744.155C722.381 736.391 718.561 728.907 715.254 721.226C696.62 677.933 693.685 641.865 701.349 595.582C703.499 582.596 705.853 569.136 710.724 556.857Z"/>
	<path fill="white" d="M440.79 619.25C446.358 622.627 453.262 627.492 457.539 632.472C463.844 639.816 467.87 651.336 467.018 661.023C465.325 680.278 450.786 704.443 436.069 716.763C411.805 737.075 363.005 741.152 332.378 738.297C322.657 737.242 312.962 735.986 303.231 734.99C312.701 725.986 319.849 715.538 330.95 708.234C339.634 702.521 351.562 702.554 361.592 700.987C375.575 698.803 390.169 696.059 402.561 688.91C430.785 672.628 433.204 647.444 440.79 619.25Z"/>
	<path fill="white" d="M1024 296.254C1019.19 298.272 1013.87 299.485 1008.71 300.173C992.507 302.329 973.616 300.381 960.316 290.199C948.294 280.995 938.031 268.623 927.386 257.859C914.257 244.584 900.794 232.675 886.157 221.111C884.784 220.026 881.714 218.209 881.503 216.586C881.609 216.503 881.705 216.407 881.821 216.337C884.596 214.661 891.149 215.3 894.498 215.104C912.882 214.028 930.974 212.245 949.319 215.07C979.239 219.679 1006.09 235.355 1024 259.881L1024 296.254Z"/>
	<path fill="white" d="M599.801 766.713C602.676 766.574 605.489 766.986 608.336 767.334C600.251 795.624 572.163 808.53 552.063 827.132C531.251 846.393 513.12 871.855 504.071 898.89Q483.549 901.994 462.936 904.43C459.898 904.517 456.831 904.864 453.799 905.111Q454.343 902.448 454.971 899.804Q455.599 897.16 456.311 894.538Q457.023 891.915 457.818 889.316Q458.613 886.717 459.491 884.145Q460.369 881.573 461.328 879.031Q462.287 876.488 463.326 873.977Q464.366 871.466 465.485 868.989Q466.604 866.513 467.801 864.073Q468.998 861.633 470.272 859.233Q471.547 856.832 472.897 854.474Q474.247 852.115 475.672 849.801Q477.096 847.487 478.594 845.219Q480.091 842.951 481.66 840.732Q483.229 838.513 484.868 836.345Q486.507 834.177 488.214 832.063Q489.921 829.948 491.695 827.889C517.71 798.224 559.664 769.337 599.801 766.713Z"/>
	<path fill="white" d="M670.699 786.746L671.494 786.776C676.179 791.448 680.368 796.871 684.908 801.729C696.295 813.91 709.407 824.368 715.033 840.611L709.512 846.714C700.085 839.176 687.593 834.208 675.959 831.355C651.918 825.462 628.34 829.662 607.272 842.612C590.525 852.906 576.403 868.387 571.765 887.83C567.461 890.552 525.644 895.85 517.957 896.667C521.959 879.282 532.248 861.448 543.537 847.74C565.357 821.244 597.152 801.052 630.482 792.76C643.675 789.478 657.191 788.008 670.699 786.746Z"/>
	<path fill="white" d="M544.216 685.607C577.866 681.431 587.757 714.841 635.902 702.894C635.937 708.795 636.641 714.538 637.695 720.339C619.102 729.04 597.316 731.188 577.788 724.056C570.056 721.233 562.713 717.27 554.428 716.296C539.151 714.5 524.107 720.607 512.332 730.055C491.759 746.561 486.545 766.534 483.822 791.572C479.631 796.54 474.201 800.462 469.886 805.37C449.102 829.008 447.493 859.01 449.563 888.879C450.254 894.301 450.661 899.727 451.066 905.175C445.533 910.338 440.63 916.089 435.367 921.519Q431.79 919.126 428.523 916.326Q425.257 913.525 422.346 910.355C408.73 895.354 406.082 873.692 407.03 854.231C419.937 849.063 431.609 841.982 441.79 832.462C456.958 818.279 482.805 781.868 483.151 761.434C483.187 759.323 482.74 757.293 481.183 755.783C480.276 754.902 480.072 755.061 478.872 755.101C474.588 755.248 470.206 756.539 465.965 757.161C461.506 757.814 456.975 757.931 452.477 758.037C463.909 749.713 468.87 739.843 477.571 729.223C492.492 711.01 520.986 690.213 544.216 685.607Z"/>
	<path fill="white" d="M455.458 761.771L466.961 761.294C450.761 805.293 420.024 838.162 374.36 851.778C366.007 854.268 357.226 855.428 348.749 857.491C319.454 864.618 297.077 876.025 275.159 896.974L268.813 903.142C270.68 884.587 274.965 867.91 284.741 851.839C302.378 822.849 332.007 805.915 364.639 799.174C379.493 796.105 394.548 794.675 409.334 791.058C421.874 787.989 437.89 783.432 446.996 773.866C450.419 770.269 452.892 765.989 455.458 761.771Z"/>
	<path fill="white" d="M860.732 416.406C863.056 418.621 865.142 421.662 867.278 424.118C876.781 435.043 886.894 446.033 893.211 459.205C899.512 472.343 902.177 487.429 897.114 501.408C894.874 507.594 891.315 513.017 886.146 517.142C868.188 531.472 850.591 516.945 832.672 525.839C822.784 530.747 817.923 539.67 814.592 549.757L809.377 542.614C802.838 533.383 795.23 524.461 787.544 516.165C779.782 507.786 771.424 499.465 764.728 490.196C764.98 481.354 767.807 474.681 774.301 468.58C787.362 456.309 801.006 463.658 816.197 463.988C828.347 464.251 840.115 460.3 848.874 451.706C859.419 441.36 860.677 430.463 860.732 416.406Z"/>
	<path fill="white" d="M406.84 757.72C412.078 757.529 417.16 757.59 422.354 758.378C433.881 760.126 438.308 762.518 450.487 761.897C438.598 790.43 379.78 790.272 353.465 797.676C333.155 803.389 313.93 813.217 298.791 828.084Q297.817 829.04 296.867 830.019Q295.916 830.999 294.99 832.001Q294.064 833.003 293.163 834.028Q292.261 835.053 291.385 836.099Q290.509 837.146 289.659 838.213Q288.809 839.281 287.985 840.369Q287.162 841.457 286.365 842.565Q285.568 843.673 284.799 844.8Q284.029 845.928 283.288 847.073Q282.546 848.219 281.833 849.382Q281.12 850.546 280.435 851.726Q279.75 852.907 279.095 854.104Q278.439 855.301 277.813 856.514Q277.187 857.726 276.591 858.954Q275.995 860.182 275.429 861.424Q274.864 862.665 274.328 863.921Q273.793 865.176 273.289 866.444Q272.784 867.712 272.311 868.992Q271.838 870.272 271.396 871.564Q270.954 872.855 270.544 874.157Q270.134 875.458 269.757 876.77Q269.379 878.081 269.033 879.401Q268.687 880.721 268.374 882.05Q268.06 883.378 267.78 884.713Q267.499 886.049 267.251 887.391Q267.003 888.733 266.788 890.081Q266.573 891.428 266.391 892.781Q266.21 894.133 266.061 895.49Q265.912 896.847 265.797 898.206Q265.681 899.566 265.599 900.928Q265.517 902.291 265.468 903.655Q265.419 905.018 265.404 906.383C262.027 910.001 257.948 912.807 253.896 915.608C247.578 919.755 240.944 923.284 234.262 926.798C231.331 921.02 228.898 914.72 227 908.537C220.92 888.735 220.937 866.661 230.981 848.07C232.26 845.703 233.756 843.436 235.623 841.489C239.216 837.742 244.108 835.029 248.096 831.682C254.918 825.956 260.795 817.446 269.136 813.837C275.602 811.04 283.149 811.847 289.913 809.751C298.046 807.231 305.134 801.945 308.973 794.214C312.653 786.802 311.829 779.96 309.213 772.469C329.092 772.215 348.946 767.862 368.351 763.814C381.282 761.116 393.572 758.359 406.84 757.72Z"/>
	<path fill="white" d="M962.282 107.706Q964.18 107.654 966.076 107.739Q967.972 107.825 969.857 108.047Q971.743 108.27 973.607 108.63Q975.471 108.989 977.304 109.483Q979.137 109.976 980.929 110.602Q982.721 111.227 984.464 111.981Q986.206 112.735 987.889 113.613Q989.571 114.492 991.186 115.49C998.925 120.311 1005.03 128.247 1006.88 137.265C1008.89 147.026 1004.11 158.109 998.714 166.083C982.671 189.812 949.457 203.661 922.117 208.918C909.61 210.7 896.825 212.51 884.195 210.947C891.203 193.019 893.641 174.527 890.253 155.465C889.006 148.45 886.993 141.584 885.698 134.564C912.132 126.232 933.641 109.515 962.282 107.706Z"/>
	<path fill="white" d="M0 0L1024 0L1024 174.055C1014.42 159.202 1015.63 145.016 1009 129.871C1003.71 117.796 994.864 107.579 989.132 95.6069C995.444 94.2011 1019.35 92.0669 1022.37 88.059C1023.1 87.0774 1022.93 86.6053 1022.7 85.5228C1020.63 82.9957 1017.26 81.9438 1014.09 81.5841C984.966 78.2805 937.067 98.9595 910.225 110.555C901.326 114.399 891.987 118.044 883.393 122.532C882.212 113.881 881.574 102.742 873.86 97.144C868.072 92.9443 860.623 93.5491 853.98 94.8152C835.518 98.3342 817.442 107.376 801.629 117.312C796.964 120.244 792.669 124.22 787.752 126.658C781.341 129.836 773.309 131.228 766.371 133.112C757.25 135.589 748.201 138.34 738.975 140.418C707.634 130.6 668.064 134.155 639.121 149.413C627.549 155.514 618.312 162.915 608.463 171.374C596.599 144.55 580.083 124.143 552.094 113.277C525.263 102.86 502.672 94.769 479.779 76.3987C469.057 67.7948 459.348 56.0013 447.264 49.463C442.265 46.7579 437.484 45.9203 432.104 48.3797C426.788 50.8097 423.919 56.1309 422.082 61.4117C410.255 95.4153 419.159 139.479 434.75 171.087C452.434 206.938 489.959 241.074 528.01 253.944Q533.751 255.87 539.654 257.223C509.563 301.457 476.954 348.139 437.507 384.457C426.081 394.976 414.068 404.611 401.827 414.144C391.894 421.878 381.637 429.333 372.733 438.268C360.663 438.236 348.659 437.851 336.718 435.937C307.559 431.263 279.106 417.473 258.198 396.609C248.842 387.272 240.454 376.754 231.343 367.128Q230.141 382.717 230.323 398.352Q230.505 413.987 232.07 429.544C236.807 472.451 251.162 511.032 233.617 553.667C169.376 545.447 100.655 500.469 61.4573 449.677C39.2534 420.905 19.8603 384.759 5.18087 351.493C2.66937 383.312 0.906415 415.049 1.59853 446.987C3.32101 526.472 19.705 614.645 54.9353 686.349C67.5151 711.953 82.741 735.66 99.4121 758.745C103.755 764.758 107.545 771.426 112.12 777.211C106.75 790.241 101.779 803.023 107.671 816.863C114.061 831.876 129.229 841.118 135.643 856.39C138.613 863.463 139.773 871.156 140.607 878.733C143.513 905.134 142.37 923.737 163.61 942.863C170.913 949.44 179.518 955.603 188.766 959.115C189.191 959.277 189.626 959.409 190.058 959.548C208.655 955.571 225.001 947.222 241.747 938.613C248.764 944.573 255.581 950.658 263.209 955.85Q265.419 957.346 267.691 958.747Q269.962 960.148 272.291 961.451Q274.62 962.755 277.002 963.958Q279.384 965.162 281.814 966.263Q284.245 967.365 286.72 968.363Q289.196 969.36 291.711 970.252Q294.226 971.144 296.777 971.929Q299.328 972.714 301.91 973.389Q304.491 974.065 307.099 974.631Q309.707 975.197 312.337 975.652Q314.967 976.107 317.613 976.45Q320.26 976.793 322.919 977.024Q325.578 977.255 328.244 977.373Q330.91 977.491 333.579 977.495Q336.247 977.5 338.914 977.392Q341.58 977.284 344.24 977.063C379.789 974.124 411.056 959.669 438.24 936.84C445.645 930.622 452.185 923.18 459.656 917.172C477.325 915.096 494.869 912.541 512.495 910.169C583.296 900.641 659.995 888.144 724.294 856.115C739.102 848.739 753.612 840.042 767.238 830.672C780.313 821.68 792.981 811.794 805.378 801.885C812.021 796.576 818.466 790.774 825.451 785.929C828.34 783.925 831.764 781.573 835.248 780.89C839.163 780.123 843.512 780.535 847.454 780.843C870.815 782.665 890.359 795.628 908.264 809.779C915.18 815.245 921.967 820.943 929.138 826.072C953.362 843.397 993.942 867.628 1024 870.387L1024 1024L0 1024L0 0Z"/>
</svg>
